<?xml version="1.0" encoding="utf-8"?>
<!DOCTYPE svg PUBLIC "-//W3C//DTD SVG 1.1//EN" "http://www.w3.org/Graphics/SVG/1.1/DTD/svg11.dtd">
<svg version="1.1" xmlns="http://www.w3.org/2000/svg" xmlns:xlink="http://www.w3.org/1999/xlink" x="0px" y="0px"
	 width="469.02px" height="402.86px" viewBox="0 0 469.02 402.86" style="enable-background:new 0 0 469.02 402.86;"
	 xml:space="preserve">
<g id="Character">
	<g>
		<path style="fill:#00000015;" d="M70.42,173.68c90.8-52.43,237.54-52.42,327.75,0c90.22,52.43,89.74,137.43-1.06,189.85
			c-90.81,52.43-237.55,52.43-327.77,0C-20.87,311.11-20.39,226.11,70.42,173.68z"/>
		<path style="fill:#00000015;" d="M64.43,275.9c-6.7-3.87-17.52-3.87-24.18,0c-6.66,3.87-6.62,10.14,0.08,14s17.52,3.87,24.18,0
			C71.16,286.04,71.13,279.77,64.43,275.9z"/>
		<path style="fill:#00000015;" d="M228.12,281.52l12.39-16.84c2.53-3.44,6.43-5.6,10.69-5.93l18.26-1.4l29.02-17.63l-10.85-6.26
			c-0.65-0.38-0.65-1.32,0.01-1.7l4.51-2.57c1.81-1.03,4.03-1.02,5.83,0.02l106.32,61.46c0.65,0.38,0.65,1.32,0,1.69l-4.4,2.54
			c-1.81,1.05-4.05,1.05-5.87,0l-46.16-26.66l-28.62,16.42l-3.74,10.52c-2.36,6.62-8.63,11.05-15.66,11.05h-26.7l-18.12,10.46
			l-43.78-25.44L228.12,281.52z"/>
		<path style="fill:#00000015;" d="M92.01,265.99c28.94-16.71,75.71-16.71,104.46,0c25.41,14.76,28.23,37.63,8.58,54.28
			c15.85-0.98,32.28,2.04,44.39,9.07c21.25,12.35,21.14,32.37-0.25,44.72c-21.39,12.35-55.95,12.35-77.2,0
			c-16.91-9.82-20.27-24.5-10.18-36.31c-24.36,3.52-51.18-0.22-70.15-11.25C62.92,309.79,63.07,282.7,92.01,265.99z"/>
		<path style="fill:#00000015;" d="M401.16,312.11c7.62-4.4,19.94-4.4,27.51,0c7.57,4.4,7.53,11.54-0.09,15.94
			c-7.62,4.4-19.94,4.4-27.51,0C393.49,323.64,393.53,316.51,401.16,312.11z"/>
		<g>
			<g>
				<g>
					<path style="fill:#BA68C8;" d="M168.04,4.98l-59.87,34.62c-1.06,0.61-1.9,1.49-2.48,2.51c-0.55,0.98-0.86,2.09-0.86,3.26v60.2
						c0,4.46,5.06,8.26,10.05,5.41l25.04-14.84l0.54,0.87c0.02,0.04,0.06,0.05,0.09,0.08l0,0.01c0.02,0.01,0.04,0.03,0.07,0.04
						c0.01,0,0.01,0.01,0.02,0.01c0.97,0.65,2.69,1.57,3.07,1.76l-0.01-0.02c0.18,0.05,0.38-0.02,0.45-0.22l2.18-6.18l0,0
						l28.42-16.05c2.07-1.18,3.35-3.39,3.35-5.78V10.39C178.09,5.59,171.02,3.27,168.04,4.98z"/>
					<path style="fill:none;" d="M114.09,43.64C114.09,43.64,114.09,43.65,114.09,43.64C114.09,43.65,114.09,43.64,114.09,43.64z"/>
					<path style="opacity:0.2;fill:#FFFFFF;" d="M140.45,97.02c0.02,0.04,0.06,0.05,0.09,0.08l0,0.01c0.02,0.01,0.04,0.03,0.07,0.04
						c0.01,0,0.01,0.01,0.02,0.01c0.97,0.65,2.69,1.57,3.07,1.76l-0.01-0.02c-0.08-0.02-0.16-0.07-0.21-0.15l-2.11-3.42l0.42-0.24
						l0,0l-1.86,1.06L140.45,97.02z"/>
					<path style="opacity:0.4;fill:#FFFFFF;" d="M112.31,45.88c0.43-0.85,1.03-1.62,1.78-2.23c0,0,0,0,0,0
						c0.25-0.2,0.52-0.39,0.81-0.55l59.87-34.62c1.48-0.85,3.32,0.22,3.32,1.92c0-4.8-7.07-7.12-10.05-5.41l-59.87,34.62
						c-1.06,0.61-1.9,1.49-2.48,2.51L112.31,45.88z"/>
					<path style="opacity:0.2;fill:#FFFFFF;" d="M111.56,109.06v-60.2c0-0.27,0.02-0.53,0.05-0.79c0.1-0.77,0.35-1.51,0.7-2.2
						l-6.62-3.76c-0.55,0.98-0.86,2.09-0.86,3.26v60.2c0,4.46,5.06,8.26,10.05,5.41C113.4,111.83,111.56,110.77,111.56,109.06z"/>
				</g>
			</g>
			<g>
				<path style="fill:#FFFFFF;" d="M163.63,30.35c0.19-2.56,1.95-5.43,4.09-6.67l4.3-2.49c0.57-0.33,1.03-0.07,1.03,0.59
					s-0.46,1.45-1.03,1.78l-4.3,2.49c-1.07,0.62-1.95,2.06-2.05,3.34l-2.36,31.99c-0.27,3.67-2.52,7.71-5.42,10
					c0.34,0.5,0.53,1.17,0.54,2.02c0.01,2.65-1.85,5.86-4.15,7.19c-2.3,1.33-4.17,0.26-4.18-2.38c0-0.79,0.16-1.64,0.46-2.47
					l-7.62,4.4c0.3,0.49,0.47,1.14,0.47,1.93c0.01,2.65-1.85,5.86-4.15,7.19c-2.3,1.33-4.17,0.26-4.18-2.38
					c0-0.79,0.17-1.64,0.46-2.47l-0.2,0.12c-0.57,0.33-1.03,0.07-1.03-0.59c0-0.65,0.46-1.45,1.03-1.78l2.65-1.53
					c0.39-0.37,0.82-0.69,1.25-0.95s0.85-0.41,1.25-0.5l12.51-7.22c0.39-0.37,0.81-0.69,1.25-0.95c0.43-0.25,0.85-0.41,1.25-0.5
					l1.17-0.67c2.41-1.39,4.39-4.62,4.6-7.5l0.05-0.67c-0.4,0.52-0.87,0.96-1.37,1.24l-26.62,15.37c-1.33,0.77-2.45,0.25-2.57-1.2
					l-2.09-23.82l34.75-20.06L163.63,30.35z M145.24,67.1c0,0.88,0.63,1.24,1.4,0.8c0.77-0.44,1.39-1.52,1.39-2.41l-0.05-19.08
					c0-0.89-0.63-1.24-1.4-0.8c-0.77,0.44-1.39,1.52-1.39,2.41L145.24,67.1 M139.21,70.58c0,0.88,0.63,1.24,1.4,0.8
					c0.77-0.44,1.39-1.52,1.39-2.41l-0.05-19.08c0-0.89-0.63-1.24-1.4-0.8c-0.77,0.44-1.39,1.52-1.39,2.41L139.21,70.58
					 M133.18,74.06c0,0.88,0.63,1.24,1.4,0.8c0.77-0.44,1.39-1.52,1.39-2.41l-0.05-19.08c0-0.89-0.63-1.24-1.4-0.8
					c-0.77,0.44-1.39,1.52-1.39,2.41L133.18,74.06 M151.27,63.62c0,0.88,0.63,1.24,1.4,0.8c0.77-0.44,1.39-1.52,1.39-2.41L154,42.94
					c0-0.89-0.63-1.24-1.4-0.8c-0.77,0.44-1.39,1.52-1.39,2.41L151.27,63.62 M157.29,60.14c0,0.88,0.63,1.24,1.4,0.8
					c0.77-0.44,1.39-1.52,1.39-2.41l-0.05-19.08c0-0.89-0.63-1.24-1.4-0.8c-0.77,0.44-1.39,1.52-1.39,2.41L157.29,60.14 M154.27,74
					c-0.87,0.5-1.56,1.71-1.56,2.7c0,0.99,0.7,1.39,1.57,0.89c0.86-0.5,1.56-1.71,1.56-2.7C155.83,73.9,155.13,73.5,154.27,74
					 M139.25,82.66c-0.86,0.5-1.56,1.71-1.56,2.7s0.7,1.39,1.57,0.89c0.86-0.5,1.56-1.71,1.56-2.7S140.12,82.17,139.25,82.66"/>
			</g>
			<g>
				<g>
					<path style="fill:#FFFFFF;" d="M118.72,53.76c-0.39,0.22-0.77,0.62-1.07,1.13c-0.59,1.02-0.59,2.12,0.01,2.45l8.83,5.04
						c0.29,0.17,0.68,0.11,1.07-0.11c0.39-0.22,0.77-0.61,1.07-1.13l4.33-7.5c0.59-1.02,0.59-2.12-0.01-2.46
						c-0.29-0.17-0.68-0.11-1.07,0.11c-0.39,0.22-0.77,0.62-1.07,1.12l-3.26,5.65l-7.75-4.42C119.5,53.48,119.11,53.54,118.72,53.76
						z"/>
				</g>
				<path style="fill:#BA68C8;" d="M135.97,50.61c0.02,6.76-4.74,14.99-10.62,18.39c-5.89,3.4-10.67,0.68-10.69-6.09
					c-0.02-6.76,4.74-14.99,10.62-18.39C131.17,41.12,135.95,43.85,135.97,50.61z M126.5,62.38c0.29,0.17,0.68,0.11,1.07-0.11
					c0.39-0.22,0.77-0.61,1.07-1.13l4.33-7.5c0.59-1.02,0.59-2.12-0.01-2.46c-0.29-0.17-0.68-0.11-1.07,0.11
					c-0.39,0.22-0.77,0.62-1.07,1.12l-3.26,5.65l-7.75-4.42c-0.3-0.17-0.69-0.12-1.07,0.11c-0.39,0.22-0.77,0.62-1.07,1.13
					c-0.59,1.02-0.59,2.12,0.01,2.45L126.5,62.38"/>
				<path style="opacity:0.3;fill:#FFFFFF;" d="M135.97,50.61c0.02,6.76-4.74,14.99-10.62,18.39c-5.89,3.4-10.67,0.68-10.69-6.09
					c-0.02-6.76,4.74-14.99,10.62-18.39C131.17,41.12,135.95,43.85,135.97,50.61z M126.5,62.38c0.29,0.17,0.68,0.11,1.07-0.11
					c0.39-0.22,0.77-0.61,1.07-1.13l4.33-7.5c0.59-1.02,0.59-2.12-0.01-2.46c-0.29-0.17-0.68-0.11-1.07,0.11
					c-0.39,0.22-0.77,0.62-1.07,1.12l-3.26,5.65l-7.75-4.42c-0.3-0.17-0.69-0.12-1.07,0.11c-0.39,0.22-0.77,0.62-1.07,1.13
					c-0.59,1.02-0.59,2.12,0.01,2.45L126.5,62.38"/>
			</g>
		</g>
		<g>
			<g>
				<g>
					<g>
						<path style="fill:#455A64;" d="M290.43,15.51L290.43,15.51c0.7-2.48,5.71-7.18,10.71-7.08c0.18,0,1.08,0.09,1.4,0.27
							l97.01,55.19c1.65,0.94,2.92,2.35,3.73,4c0.61,1.25,0.96,2.63,0.96,4.07v209.83c0,5.35-6.16,10.45-11.95,7.99
							c-0.01-0.01-0.03-0.02-0.04-0.03c-0.13-0.04-0.25-0.08-0.37-0.15l-97.01-55.28c-2.9-1.65-4.69-4.73-4.69-8.06V16.53
							C290.18,16.15,290.28,15.82,290.43,15.51z"/>
						<path style="fill:#BA68C8;" d="M390.7,94.14c0-1.67-0.9-3.21-2.35-4.03l-90.07-51.24c-1.55-0.88-3.47,0.24-3.47,2.02v169.2
							c0,1.66,0.9,3.21,2.34,4.03l90.07,51.33c1.55,0.88,3.47-0.24,3.47-2.02V94.14z"/>
						<path style="opacity:0.2;" d="M390.7,94.14c0-1.67-0.9-3.21-2.35-4.03l-90.07-51.24c-1.55-0.88-3.47,0.24-3.47,2.02v169.2
							c0,1.66,0.9,3.21,2.34,4.03l90.07,51.33c1.55,0.88,3.47-0.24,3.47-2.02V94.14z"/>
						<path style="opacity:0.1;fill:#FFFFFF;" d="M390.7,94.14c0-1.67-0.9-3.21-2.35-4.03l-90.07-51.24
							c-1.55-0.88-3.47,0.24-3.47,2.02v169.2c0,1.66,0.9,3.21,2.34,4.03l90.07,51.33c1.55,0.88,3.47-0.24,3.47-2.02V94.14z"/>
						<path style="opacity:0.3;" d="M404.23,71.96v209.83c0,5.35-6.16,10.45-11.95,7.99c-0.01-0.01-0.03-0.02-0.04-0.03
							c1.47,0.53,3.1-0.53,3.1-2.17V77.76c0-1.86-0.57-3.63-1.57-5.12l9.5-4.74C403.88,69.14,404.23,70.53,404.23,71.96z"/>
						<path style="opacity:0.1;fill:#FFFFFF;" d="M301.14,8.44c0.18,0,1.08,0.09,1.4,0.27l97.01,55.19c1.65,0.94,2.92,2.35,3.73,4
							l-9.5,4.74c-0.79-1.19-1.84-2.21-3.12-2.94l-97.01-55.19c-1.22-0.7-2.66-0.13-3.22,1l-0.01-0.01
							C291.13,13.04,296.14,8.34,301.14,8.44z"/>
						<g>
							<g>
								<g>
									<path style="fill:#263238;" d="M330.8,49.16c-0.68-0.39-1.25-0.09-1.25,0.69c0,0.78,0.56,1.75,1.24,2.15l19.03,10.99
										c0.68,0.39,1.23,0.06,1.23-0.72c0-0.78-0.54-1.73-1.22-2.12L330.8,49.16z"/>
								</g>
								<g>
									<path style="fill:#263238;" d="M354.72,62.97c-0.68-0.39-1.23-0.08-1.23,0.7c0,0.78,0.54,1.75,1.22,2.14
										c0.68,0.39,1.25,0.07,1.25-0.71C355.97,64.32,355.41,63.36,354.72,62.97z"/>
								</g>
							</g>
							<g>
								<path style="fill:#263238;" d="M342.54,47.56c-1.36-0.79-2.46-0.16-2.46,1.4s1.09,3.49,2.45,4.27
									c1.36,0.79,2.49,0.14,2.49-1.42C345.02,50.25,343.9,48.35,342.54,47.56z"/>
							</g>
							<g>
								<path style="fill:#263238;" d="M342.54,245.1c-2.77-1.6-5.01-0.33-5.02,2.86c-0.01,3.19,2.21,7.1,4.99,8.71
									c2.77,1.6,5.07,0.29,5.08-2.89C347.59,250.58,345.31,246.7,342.54,245.1z"/>
							</g>
						</g>
					</g>
				</g>
			</g>
			<g>
				<g>
					<polygon style="fill:#BA68C8;" points="295.12,36.22 262.36,63.41 274.3,70.3 307.05,43.11 					"/>
					<polygon style="fill:#BA68C8;" points="318.99,50.01 286.24,77.2 298.18,84.1 330.92,56.91 					"/>
					<polygon style="fill:#FFFFFF;" points="330.92,56.91 298.18,84.1 310.12,90.99 342.86,63.81 					"/>
					<polygon style="fill:#FFFFFF;" points="307.05,43.11 274.3,70.3 286.24,77.2 318.99,50.01 					"/>
					<polygon style="fill:#BA68C8;" points="366.73,77.61 334,104.79 345.94,111.68 378.67,84.5 					"/>
					<polygon style="fill:#BA68C8;" points="342.86,63.81 310.12,90.99 322.06,97.89 354.79,70.71 					"/>
					<polygon style="fill:#FFFFFF;" points="390.84,91.54 378.67,84.5 345.94,111.68 358.13,118.73 					"/>
					<polygon style="fill:#FFFFFF;" points="354.79,70.71 322.06,97.89 334,104.79 366.73,77.61 					"/>
				</g>
				<path style="fill:#BA68C8;" d="M262.36,63.41l11.94,6.9l0,0c0,3.54-3.84,5.76-6.91,3.99l0,0c-3.12-1.8-5.03-5.12-5.03-8.72
					V63.41z"/>
				<path style="fill:#E0E0E0;" d="M274.3,70.3l11.94,6.9l0,0c0,3.54-3.84,5.76-6.91,3.99l0,0c-3.11-1.8-5.03-5.12-5.03-8.72V70.3z"
					/>
				<path style="fill:#BA68C8;" d="M286.24,77.2l11.94,6.9l0,0c0,3.54-3.84,5.76-6.91,3.99l0,0c-3.11-1.8-5.03-5.12-5.03-8.72V77.2z
					"/>
				<path style="fill:#E0E0E0;" d="M298.18,84.1l11.94,6.9l0,0c0,3.54-3.84,5.76-6.91,3.99l0,0c-3.11-1.8-5.03-5.12-5.03-8.72V84.1z
					"/>
				<path style="fill:#BA68C8;" d="M310.12,90.99l11.94,6.9l0,0c0,3.54-3.84,5.76-6.91,3.99l0,0c-3.11-1.8-5.03-5.12-5.03-8.72
					V90.99z"/>
				<path style="fill:#E0E0E0;" d="M322.06,97.89l11.94,6.9l0,0c0,3.54-3.84,5.76-6.91,3.99l0,0c-3.11-1.8-5.03-5.12-5.03-8.72
					V97.89z"/>
				<path style="fill:#BA68C8;" d="M334,104.79l11.94,6.9l0,0c0,3.54-3.84,5.76-6.91,3.99l0,0c-3.11-1.8-5.03-5.12-5.03-8.72V104.79
					z"/>
				<path style="opacity:0.2;" d="M262.36,63.41l11.94,6.9l0,0c0,3.54-3.84,5.76-6.91,3.99l0,0c-3.12-1.8-5.03-5.12-5.03-8.72V63.41
					z"/>
				<path style="opacity:0.2;" d="M286.24,77.2l11.94,6.9l0,0c0,3.54-3.84,5.76-6.91,3.99l0,0c-3.11-1.8-5.03-5.12-5.03-8.72V77.2z"
					/>
				<path style="opacity:0.2;" d="M310.12,90.99l11.94,6.9l0,0c0,3.54-3.84,5.76-6.91,3.99l0,0c-3.11-1.8-5.03-5.12-5.03-8.72V90.99
					z"/>
				<path style="opacity:0.2;" d="M334,104.79l11.94,6.9l0,0c0,3.54-3.84,5.76-6.91,3.99l0,0c-3.11-1.8-5.03-5.12-5.03-8.72V104.79z
					"/>
				<path style="fill:#E0E0E0;" d="M345.94,111.68l12.2,7.05l0,0c0,3.54-3.84,5.76-6.91,3.99l0,0c-3.28-1.89-5.29-5.39-5.29-9.17
					V111.68z"/>
			</g>
			<g>
				<g>
					<path style="fill:#BA68C8;" d="M332.02,146.89c3.1,0.34,6.66,1.33,10.14,3.13c3.48,1.79,6.86,4.37,9.61,7.54
						c2.75,3.17,4.84,6.88,6.12,10.58c1.29,3.7,1.78,7.36,1.68,10.48c-0.72-3.03-1.79-6.41-3.39-9.78c-1.59-3.36-3.71-6.7-6.27-9.66
						c-2.57-2.95-5.58-5.52-8.68-7.56C338.12,149.56,334.92,148.03,332.02,146.89z"/>
				</g>
				<g>
					<path style="fill:#BA68C8;" d="M341.36,199.24c1.76-0.03,3.74-0.31,5.71-0.99c1.97-0.67,3.91-1.75,5.55-3.18
						c1.63-1.44,2.95-3.23,3.88-5.09c0.93-1.86,1.46-3.79,1.73-5.53c0.2,1.74,0.01,3.85-0.77,5.94c-0.77,2.09-2.12,4.14-3.92,5.72
						c-1.8,1.58-4.02,2.65-6.18,3.14C345.18,199.75,343.06,199.67,341.36,199.24z"/>
				</g>
				<g>
					<path style="fill:#BA68C8;" d="M325.86,167.07c-0.17,2.41-0.19,5.16,0.12,8.04c0.3,2.88,0.94,5.88,1.92,8.77
						c0.98,2.89,2.3,5.66,3.81,8.13c1.5,2.47,3.19,4.64,4.79,6.45c-2.02-1.33-4.14-3.24-5.97-5.64c-1.84-2.4-3.4-5.27-4.44-8.33
						c-1.03-3.06-1.55-6.29-1.54-9.31C324.54,172.16,325.07,169.35,325.86,167.07z"/>
				</g>
				<g>
					<path style="fill:#BA68C8;" d="M357.21,156.04c2.13,2.01,4.24,4.78,5.83,8.1c1.6,3.31,2.67,7.17,2.95,11.11
						c0.28,3.94-0.25,7.91-1.38,11.41c-1.11,3.51-2.82,6.54-4.65,8.83c1.17-2.69,2.27-5.84,2.96-9.28c0.7-3.43,1-7.14,0.74-10.81
						c-0.26-3.67-1.07-7.3-2.24-10.6C360.27,161.5,358.74,158.54,357.21,156.04z"/>
				</g>
				<g>
					<path style="fill:#BA68C8;" d="M319.01,157.21c0.18-2.36,1.08-5.11,2.83-7.57c1.73-2.46,4.31-4.63,7.33-5.86
						c3.03-1.23,6.39-1.47,9.35-0.9c2.97,0.55,5.53,1.89,7.31,3.46c-2.13-1.04-4.71-1.85-7.49-2.06c-2.78-0.22-5.76,0.16-8.45,1.25
						c-2.7,1.1-5.09,2.9-6.93,4.99C321.1,152.61,319.81,154.98,319.01,157.21z"/>
				</g>
			</g>
			<g>
				<path style="fill:#FFA8A7;" d="M276.12,125.9L276.12,125.9c-6.57-0.67-12.55,3.84-13.71,10.34l-4.65,26.02l-29.1,20.35l6.5,7.91
					l27.68-14.54c3.29-1.73,5.75-4.71,6.8-8.28l8.92-30.09L276.12,125.9z"/>
				<g>
					<path style="fill:#455A64;" d="M265.32,153.81c-2.57-1.34-4.64-3.56-5.88-6.17l2.61-11.92c1.37-6.27,7.23-10.51,13.62-9.86
						l0.45,0.05l2.45,11.71l-3.87,17.28C271.58,155.66,268.18,155.3,265.32,153.81z"/>
					<path style="fill:#455A64;" d="M265.32,153.81c2.86,1.49,6.26,1.85,9.38,1.08l-0.95,4.26c-3.62,0.8-12.86,0.54-15.27-7.1
						l0.97-4.41C260.69,150.25,262.76,152.47,265.32,153.81z"/>
					<path style="opacity:0.2;fill:#FFFFFF;" d="M265.32,153.81c-2.57-1.34-4.64-3.56-5.88-6.17l2.61-11.92
						c1.37-6.27,7.23-10.51,13.62-9.86l0.45,0.05l2.45,11.71l-3.87,17.28C271.58,155.66,268.18,155.3,265.32,153.81z"/>
					<path style="opacity:0.5;fill:#FFFFFF;" d="M265.32,153.81c2.86,1.49,6.26,1.85,9.38,1.08l-0.95,4.26
						c-3.62,0.8-12.86,0.54-15.27-7.1l0.97-4.41C260.69,150.25,262.76,152.47,265.32,153.81z"/>
				</g>
				<path style="fill:#455A64;" d="M269.68,137.06c0,0,1.16-8.85,6.44-11.16c0,0,12.63,3.79,23.12,7.77
					c5.11,1.94,8.27,3.24,12.15,5.17c2.38,2.06,9.21,8.19,12.42,9.85c1.56,0.8,3.25,1.26,4.99,1.5c0.01,0,0.02,0,0.02,0
					c1.93,0.26,4.02,1.01,6.21,2.27c9.62,5.56,17.39,19.02,17.36,30.07c-0.02,7.25-3.4,11.63-8.43,12.25c0,0.01,0,0.02,0,0.03
					c-0.06,0-0.14,0-0.21,0c-0.76,0.08-1.56,0.07-2.39-0.02c-8.75-0.08-22.78-0.15-28.3-1.73
					C287.32,185.52,267.08,166.91,269.68,137.06z"/>
				<g>
					<path style="fill:#FFA8A7;" d="M294.21,133.43l-3.78-6.84l-15.16,10.22c2,2.69,4,5.37,6,8.06c2.6,1.12,5.56,1.5,8.14,0.33
						s4.63-3.47,5.5-6.16C295.52,137.17,295.14,135.27,294.21,133.43z"/>
					<path style="opacity:0.2;" d="M289.02,127.55c0,8.23-6.55,12.1-10.55,13.56l-3.19-4.29L289.02,127.55z"/>
				</g>
				<g>
					<g>
						<path style="fill:#263238;" d="M295.87,119.33c0.56-3.29,1.13-6.67,0.49-9.95c-0.64-3.28-2.75-6.48-5.96-7.44
							c-1.15-2.77-3.92-5.01-6.77-5.93c-2.85-0.92-5.9-1.01-8.89-1.08c-3.31-0.08-6.66-0.14-9.9,0.55
							c-3.24,0.69-6.41,2.21-8.48,4.81c-2.38,2.99-3.03,7.08-2.46,10.86c0.57,3.78,2.24,7.3,4.11,10.63
							c6.36,0.45,12.84,1.18,19.21,1.63c3.25,0.23,6.52,0.46,9.75,0.08C290.2,123.11,293.34,121.38,295.87,119.33z"/>
						<path style="fill:#FFA8A7;" d="M256.93,104.08c-1.64,9.73-0.54,19.9,3.12,29.05c0.85,2.13,1.96,4.33,3.95,5.47
							c2.09,1.19,4.67,0.94,7.05,0.58c3.83-0.58,7.68-1.36,11.13-3.13c3.44-1.77,6.47-4.63,7.7-8.3c2.53,0.61,5.18-0.56,6.75-2.64
							c1.57-2.08,2.13-4.76,2.19-7.37c0.04-1.67-0.31-3.64-1.8-4.37c-1.39-0.68-3.06,0.08-4.27,1.06c-1.97,1.6-3.44,3.8-4.16,6.24
							c-1.1-4.06-2.82-7.98-3.92-12.04c-0.43-1.6-0.97-3.34-2.36-4.23c-1.71-1.09-3.93-0.46-5.89,0.02
							C270.41,105.91,262.83,105.91,256.93,104.08z"/>
						<polygon style="fill:#F28F8F;" points="268.77,116.4 264.02,124.4 269.68,125.46 						"/>
						<path style="fill:#F28F8F;" d="M275.14,128.22c-1.43,0.7-2.87,1.39-4.3,2.09c0.63,0.98,2.2,1.4,3.26,0.93
							S275.45,129.33,275.14,128.22z"/>
						<path style="opacity:0.3;" d="M275.14,128.22c-1.43,0.7-2.87,1.39-4.3,2.09c0.63,0.98,2.2,1.4,3.26,0.93
							S275.45,129.33,275.14,128.22z"/>
						<path style="fill:#F28F8F;" d="M272.61,131.38c0.52,0.09,1.05,0.06,1.49-0.14c0.83-0.37,1.19-1.33,1.15-2.27
							c-0.61,0-1.22,0.2-1.7,0.59C273.01,130,272.68,130.68,272.61,131.38z"/>
						<circle style="fill:#263238;" cx="275.35" cy="116.88" r="1.63"/>
						<circle style="fill:#263238;" cx="261.71" cy="117.73" r="1.63"/>
						<path style="fill:#263238;" d="M261.11,111.29c-1.11,0.95-2.22,1.89-3.34,2.84c-0.44-0.81-0.21-1.95,0.44-2.61
							C258.87,110.86,260.29,110.85,261.11,111.29z"/>
						<path style="fill:#263238;" d="M274.41,111.06c1.28,0.71,2.56,1.41,3.84,2.12c0.27-0.89-0.18-1.96-0.96-2.47
							C276.51,110.2,275.12,110.47,274.41,111.06z"/>
						<g>
							<path style="fill:#455A64;" d="M253.89,107.37c13.55,2.23,28.47,2.25,42.03,0.03c-0.65-17.02-8.3-22.58-21.5-22.58
								S253.79,91.83,253.89,107.37z"/>
							<path style="fill:#455A64;" d="M253.89,107.37c-0.04-6.52,1.26-11.51,3.73-15.14l5.52-1.55c2.59-0.73,5.31-0.87,7.96-0.43
								l5.27,0.88c3.68,0.62,6.52,3.6,6.95,7.31l1.2,10.26l0,0C274.29,109.42,263.73,108.99,253.89,107.37z"/>
							<path style="opacity:0.29;fill:#FFFFFF;" d="M253.89,107.37c-0.04-6.52,1.26-11.51,3.73-15.14l5.52-1.55
								c2.59-0.73,5.31-0.87,7.96-0.43l5.27,0.88c3.68,0.62,6.52,3.6,6.95,7.31l1.2,10.26l0,0
								C274.29,109.42,263.73,108.99,253.89,107.37z"/>
							<path style="fill:#455A64;" d="M252.24,93.05h2.44c0.79,0,1.57,0.04,2.35,0.09c7.13,0.52,13.92,3.38,19.28,8.18l8.22,7.37
								c-10.24,0.72-20.79,0.29-30.63-1.33l-5.35-6.45C245.95,97.79,248.17,93.05,252.24,93.05z"/>
							<path style="opacity:0.2;" d="M252.24,93.05h2.44c0.79,0,1.57,0.04,2.35,0.09c7.13,0.52,13.92,3.38,19.28,8.18l8.22,7.37
								c-10.24,0.72-20.79,0.29-30.63-1.33l-5.35-6.45C245.95,97.79,248.17,93.05,252.24,93.05z"/>
						</g>
					</g>
				</g>
				<g>
					<g>
						<polygon style="fill:#BA68C8;" points="209.97,183.93 247.25,205.59 284.77,183.93 247.5,162.27 						"/>
					</g>
					<g style="opacity:0.3;">
						<polygon style="fill:#FFFFFF;" points="209.97,183.93 247.25,205.59 284.77,183.93 247.5,162.27 						"/>
					</g>
					<g>
						<polygon style="fill:#BA68C8;" points="209.97,183.93 210.08,221.85 247.36,243.52 247.25,205.59 						"/>
					</g>
					<g style="opacity:0.1;">
						<polygon style="fill:#FFFFFF;" points="209.97,183.93 210.08,221.85 247.36,243.52 247.25,205.59 						"/>
					</g>
					<g>
						<polygon style="fill:#BA68C8;" points="247.25,205.59 247.36,243.52 284.88,221.85 284.77,183.93 						"/>
					</g>
					<g>
						<polygon style="fill:#E0E0E0;" points="240.76,181.15 228.14,173.44 234.58,169.72 247.25,177.28 						"/>
						<polygon style="fill:#FFFFFF;" points="240.76,181.15 247.25,177.28 260.12,169.6 266.54,173.33 253.75,181.15 247.25,185.13 
							230.09,195.62 223.21,191.62 						"/>
						<polygon style="fill:#E0E0E0;" points="253.75,181.15 271.38,191.67 264.47,195.65 247.25,185.13 						"/>
						<polygon style="fill:#E0E0E0;" points="223.21,191.62 230.09,195.62 230.03,195.65 229.93,233.39 222.97,229.34 223.08,191.7 
													"/>
						<polygon style="fill:#FFFFFF;" points="264.47,195.65 271.38,191.67 271.43,191.7 271.54,229.56 264.58,233.58 264.47,195.65 
													"/>
						<polygon style="opacity:0.2;" points="264.47,195.65 271.38,191.67 271.43,191.7 271.54,229.56 264.58,233.58 264.47,195.65 
													"/>
					</g>
					<polygon style="fill:#FFFFFF;" points="247.27,192.62 255.07,197.39 247.27,201.89 239.49,197.37 					"/>
				</g>
				<g>
					<path style="fill:#FFA8A7;" d="M321.07,191.31c0,0-2.91-42.36-3.51-44.97c-2.34-10.07-16.94-9.35-18.33,0.89
						c-0.57,4.18,6.1,44.77,6.1,44.77l-24.16,25.56l-4.9,4.49l-4.35-0.89l-9.94,0.94c-0.53,0.05-0.97,0.44-1.08,0.97l0,0
						c-0.13,0.64,0.27,1.28,0.91,1.43l6.56,1.6l-4.74,3.24c-0.66,0.45-1.42,0.77-2.21,0.92l-7.43,1.4
						c-0.68,0.13-1.16,0.74-1.11,1.43l0,0c0.03,0.54,0.38,1.01,0.89,1.2l3.99,1.49c5.23,1.95,11.05,1.54,15.95-1.14l8.66-4.73
						c1.25-0.68,2.44-1.49,3.54-2.4l30.85-25.55C319.91,199.38,321.53,195.36,321.07,191.31z"/>
				</g>
				<g>
					<path style="fill:#455A64;" d="M299.62,175.07l-3.09-22.97c-0.9-6.69,3.88-12.81,10.59-13.55c6.61-0.74,12.56,4.03,13.28,10.64
						l2.58,23.47c-3.36,1.92-7.1,3.18-10.95,3.64C307.87,176.8,303.61,176.36,299.62,175.07z"/>
					<path style="opacity:0.2;fill:#FFFFFF;" d="M299.62,175.07l-3.09-22.97c-0.9-6.69,3.88-12.81,10.59-13.55
						c6.61-0.74,12.56,4.03,13.28,10.64l2.58,23.47c-3.36,1.92-7.1,3.18-10.95,3.64C307.87,176.8,303.61,176.36,299.62,175.07z"/>
					<path style="fill:#455A64;" d="M312.03,176.3c3.84-0.46,7.58-1.72,10.95-3.64l0.59,5.41c-10.39,7.98-23.13,3.06-23.13,3.06
						l-0.81-6.05C303.61,176.36,307.87,176.8,312.03,176.3z"/>
					<path style="opacity:0.5;fill:#FFFFFF;" d="M312.03,176.3c3.84-0.46,7.58-1.72,10.95-3.64l0.59,5.41
						c-10.39,7.98-23.13,3.06-23.13,3.06l-0.81-6.05C303.61,176.36,307.87,176.8,312.03,176.3z"/>
				</g>
			</g>
		</g>
		<g>
			<g>
				<path style="fill:#FFFFFF;" d="M68.6,253.65l-16.22,0.47l-16.22-0.47c-0.7,10.95,1.44,22.11,4.39,27.56h0.01
					c0.53,1.2,1.59,2.33,3.21,3.27c4.79,2.76,12.52,2.76,17.27,0c1.65-0.96,2.71-2.12,3.21-3.35
					C67.18,275.64,69.29,264.54,68.6,253.65z"/>
				<g>
					<path style="fill:#EBEBEB;" d="M63.81,247.01c6.35,3.67,6.39,9.62,0.08,13.28c-6.31,3.67-16.58,3.67-22.93,0
						c-6.35-3.67-6.39-9.62-0.07-13.28C47.19,243.34,57.45,243.34,63.81,247.01z"/>
				</g>
				<g>
					<path style="fill:#E0E0E0;" d="M61.3,248.46c4.96,2.86,4.98,7.5,0.06,10.37c-4.92,2.86-12.94,2.86-17.89,0
						c-4.96-2.86-4.98-7.5-0.06-10.37C48.33,245.6,56.34,245.6,61.3,248.46z"/>
				</g>
				<g style="opacity:0.15;">
					<path d="M61.3,248.46c4.96,2.86,4.98,7.5,0.06,10.37c-4.92,2.86-12.94,2.86-17.89,0c-4.96-2.86-4.98-7.5-0.06-10.37
						C48.33,245.6,56.34,245.6,61.3,248.46z"/>
				</g>
			</g>
			<g>
				<path style="fill:#BA68C8;" d="M44.11,220.46c-2.64-3.28-5.7-6.22-8.12-9.66c-1.65-2.35-3.03-5.23-2.34-8.01
					c0.64-2.58,3.06-4.51,5.68-5s5.36,0.29,7.62,1.7s4.1,3.4,5.76,5.48c9.07,11.39,13.49,26.38,12.05,40.87
					c-0.17,1.66-0.44,3.41-1.5,4.7c-1.14,1.38-3.13,1.99-4.85,1.48c-4.42-1.31-3.83-7.28-4.55-10.79
					c-0.99-4.81-2.71-9.47-5.07-13.78C47.43,224.99,45.87,222.65,44.11,220.46z"/>
				<path style="opacity:0.2;fill:#FFFFFF;" d="M44.11,220.46c-2.64-3.28-5.7-6.22-8.12-9.66c-1.65-2.35-3.03-5.23-2.34-8.01
					c0.64-2.58,3.06-4.51,5.68-5s5.36,0.29,7.62,1.7s4.1,3.4,5.76,5.48c9.07,11.39,13.49,26.38,12.05,40.87
					c-0.17,1.66-0.44,3.41-1.5,4.7c-1.14,1.38-3.13,1.99-4.85,1.48c-4.42-1.31-3.83-7.28-4.55-10.79
					c-0.99-4.81-2.71-9.47-5.07-13.78C47.43,224.99,45.87,222.65,44.11,220.46z"/>
				<g>
					<path style="fill:#F0F0F0;" d="M58.68,247.57c-0.17-0.04-0.3-0.18-0.31-0.36c-0.31-7.09-2.61-31.3-19.3-45.03
						c-0.17-0.14-0.19-0.38-0.05-0.54s0.38-0.19,0.54-0.05C56.5,215.52,58.83,240,59.15,247.17c0.01,0.21-0.16,0.39-0.37,0.4
						C58.74,247.58,58.71,247.58,58.68,247.57z"/>
				</g>
				<g>
					<path style="fill:#BA68C8;" d="M61.12,248.34c-0.5,2.78-2.9,6.23-5.42,7.51c-2.5,1.27-5.4,1.61-8.2,1.37
						c-2.85-0.24-5.61-1.06-8.32-1.97c-1.34-0.45-2.82-1.06-2.97-2.71c-0.08-0.88,0.32-1.72,0.95-2.33
						c0.26-0.26,0.55-0.51,0.86-0.74c0.63-0.48,0.33-1.48-0.46-1.54c-0.8-0.05-1.59-0.14-2.37-0.29c-1.81-0.35-3.59-1.04-4.98-2.25
						c-1.04-0.91-1.83-2.1-2.3-3.41c-0.4-1.11-0.51-2.51,0.33-3.34c0.48-0.48,1.18-0.66,1.84-0.8c0.59-0.13,1.19-0.24,1.78-0.33
						c0.79-0.12,0.92-1.2,0.18-1.51l-2.52-1.05c-0.7-0.29-1.43-0.6-1.91-1.19c-0.77-0.93-0.71-2.28-0.48-3.47
						c0.31-1.58,0.85-3.09,1.22-4.66c0.37-1.56,0.56-3.21,0.17-4.76c4.7-0.48,9.52-0.25,14.09,0.94c1.36,0.36,2.74,0.8,3.85,1.68
						c1.57,1.25,1.98,3.14,1.81,5.18c-0.03,0.39,0.5,0.53,0.69,0.19l1.61-2.96c0.48-0.89,1.58-1.23,2.5-0.8
						c1.39,0.65,2.63,1.69,3.68,2.89c1.13,1.29,1.71,2.99,1.57,4.71c-0.19,2.32-0.59,4.66-1.17,6.91c-0.15,0.59,0.51,1.03,1,0.68
						l0.08-0.05c0.44-0.32,0.98-0.51,1.52-0.44c1.42,0.18,1.78,1.62,1.88,2.84C61.77,244.4,61.46,246.49,61.12,248.34z"/>
					<path style="opacity:0.2;" d="M61.12,248.34c-0.5,2.78-2.9,6.23-5.42,7.51c-2.5,1.27-5.4,1.61-8.2,1.37
						c-2.85-0.24-5.61-1.06-8.32-1.97c-1.34-0.45-2.82-1.06-2.97-2.71c-0.08-0.88,0.32-1.72,0.95-2.33
						c0.26-0.26,0.55-0.51,0.86-0.74c0.63-0.48,0.33-1.48-0.46-1.54c-0.8-0.05-1.59-0.14-2.37-0.29c-1.81-0.35-3.59-1.04-4.98-2.25
						c-1.04-0.91-1.83-2.1-2.3-3.41c-0.4-1.11-0.51-2.51,0.33-3.34c0.48-0.48,1.18-0.66,1.84-0.8c0.59-0.13,1.19-0.24,1.78-0.33
						c0.79-0.12,0.92-1.2,0.18-1.51l-2.52-1.05c-0.7-0.29-1.43-0.6-1.91-1.19c-0.77-0.93-0.71-2.28-0.48-3.47
						c0.31-1.58,0.85-3.09,1.22-4.66c0.37-1.56,0.56-3.21,0.17-4.76c4.7-0.48,9.52-0.25,14.09,0.94c1.36,0.36,2.74,0.8,3.85,1.68
						c1.57,1.25,1.98,3.14,1.81,5.18c-0.03,0.39,0.5,0.53,0.69,0.19l1.61-2.96c0.48-0.89,1.58-1.23,2.5-0.8
						c1.39,0.65,2.63,1.69,3.68,2.89c1.13,1.29,1.71,2.99,1.57,4.71c-0.19,2.32-0.59,4.66-1.17,6.91c-0.15,0.59,0.51,1.03,1,0.68
						l0.08-0.05c0.44-0.32,0.98-0.51,1.52-0.44c1.42,0.18,1.78,1.62,1.88,2.84C61.77,244.4,61.46,246.49,61.12,248.34z"/>
					<path style="opacity:0.2;fill:#FFFFFF;" d="M61.12,248.34c-0.5,2.78-2.9,6.23-5.42,7.51c-2.5,1.27-5.4,1.61-8.2,1.37
						c-2.85-0.24-5.61-1.06-8.32-1.97c-1.34-0.45-2.82-1.06-2.97-2.71c-0.08-0.88,0.32-1.72,0.95-2.33
						c0.26-0.26,0.55-0.51,0.86-0.74c0.63-0.48,0.33-1.48-0.46-1.54c-0.8-0.05-1.59-0.14-2.37-0.29c-1.81-0.35-3.59-1.04-4.98-2.25
						c-1.04-0.91-1.83-2.1-2.3-3.41c-0.4-1.11-0.51-2.51,0.33-3.34c0.48-0.48,1.18-0.66,1.84-0.8c0.59-0.13,1.19-0.24,1.78-0.33
						c0.79-0.12,0.92-1.2,0.18-1.51l-2.52-1.05c-0.7-0.29-1.43-0.6-1.91-1.19c-0.77-0.93-0.71-2.28-0.48-3.47
						c0.31-1.58,0.85-3.09,1.22-4.66c0.37-1.56,0.56-3.21,0.17-4.76c4.7-0.48,9.52-0.25,14.09,0.94c1.36,0.36,2.74,0.8,3.85,1.68
						c1.57,1.25,1.98,3.14,1.81,5.18c-0.03,0.39,0.5,0.53,0.69,0.19l1.61-2.96c0.48-0.89,1.58-1.23,2.5-0.8
						c1.39,0.65,2.63,1.69,3.68,2.89c1.13,1.29,1.71,2.99,1.57,4.71c-0.19,2.32-0.59,4.66-1.17,6.91c-0.15,0.59,0.51,1.03,1,0.68
						l0.08-0.05c0.44-0.32,0.98-0.51,1.52-0.44c1.42,0.18,1.78,1.62,1.88,2.84C61.77,244.4,61.46,246.49,61.12,248.34z"/>
					<path style="fill:#F0F0F0;" d="M53.65,255.46c-0.02-0.1-0.99-4.81-3.79-10.98c0-0.11-0.05-0.21-0.13-0.29
						c-0.09-0.19-0.17-0.38-0.26-0.57c0.8-7.38,3.72-12.53,3.75-12.58c0.11-0.19,0.04-0.42-0.14-0.53c-0.18-0.1-0.42-0.04-0.53,0.14
						c-0.03,0.05-2.72,4.78-3.7,11.69c-3.21-6.43-8.33-13.96-16.23-19.46c-0.18-0.12-0.42-0.08-0.54,0.1
						c-0.12,0.17-0.08,0.42,0.1,0.54c8.15,5.67,13.29,13.53,16.42,20.06c-6.37-3.1-13.13-1.87-13.43-1.82
						c-0.21,0.04-0.35,0.24-0.31,0.45c0.03,0.16,0.15,0.28,0.3,0.31c0.05,0.01,0.1,0.01,0.15,0c0.07-0.01,7.45-1.35,13.83,2.21
						c2.78,6.11,3.74,10.78,3.76,10.88c0.03,0.16,0.16,0.28,0.3,0.3c0.05,0.01,0.1,0.01,0.15,0
						C53.55,255.87,53.69,255.67,53.65,255.46z"/>
				</g>
			</g>
		</g>
		<g>
			<g>
				<path style="fill:#FFFFFF;" d="M396.41,286.78l18.46,0.54l18.45-0.54c0.79,12.46-1.64,25.16-4.99,31.37l-0.01,0
					c-0.6,1.36-1.81,2.65-3.65,3.72c-5.45,3.14-14.24,3.14-19.65,0c-1.88-1.09-3.08-2.42-3.65-3.81
					C398.03,311.82,395.62,299.19,396.41,286.78z"/>
				<g>
					<path style="fill:#EBEBEB;" d="M401.86,279.22c-7.23,4.18-7.27,10.94-0.09,15.12c7.18,4.18,18.87,4.18,26.1,0
						c7.23-4.17,7.27-10.94,0.08-15.12C420.78,275.05,409.09,275.05,401.86,279.22z"/>
				</g>
				<g>
					<path style="fill:#E0E0E0;" d="M404.72,280.89c-5.64,3.26-5.67,8.54-0.07,11.79c5.61,3.26,14.72,3.26,20.36,0
						c5.64-3.26,5.67-8.54,0.07-11.79C419.48,277.63,410.36,277.63,404.72,280.89z"/>
				</g>
				<g style="opacity:0.15;">
					<path d="M404.72,280.89c-5.64,3.26-5.67,8.54-0.07,11.79c5.61,3.26,14.72,3.26,20.36,0c5.64-3.26,5.67-8.54,0.07-11.79
						C419.48,277.63,410.36,277.63,404.72,280.89z"/>
				</g>
			</g>
			<g>
				<path style="fill:#BA68C8;" d="M384.53,208.03c41.59,13.62,41.96,41.44,32.59,61.25c-2.36,4.01-9.52,6.16-15.75-18.48l10.92,1.4
					l-12.73-6.45l-3.31-9.88l10.61,0.79L393.39,231C388.43,215.98,384.53,208.03,384.53,208.03z"/>
				<path style="opacity:0.2;" d="M384.53,208.03c41.59,13.62,41.96,41.44,32.59,61.25c-2.36,4.01-9.52,6.16-15.75-18.48l10.92,1.4
					l-12.73-6.45l-3.31-9.88l10.61,0.79L393.39,231C388.43,215.98,384.53,208.03,384.53,208.03z"/>
				<path style="opacity:0.2;fill:#FFFFFF;" d="M384.53,208.03c41.59,13.62,41.96,41.44,32.59,61.25
					c-2.36,4.01-9.52,6.16-15.75-18.48l10.92,1.4l-12.73-6.45l-3.31-9.88l10.61,0.79L393.39,231
					C388.43,215.98,384.53,208.03,384.53,208.03z"/>
				<path style="fill:#FFFFFF;" d="M396.29,214.99c21.93,16.65,23.91,35.73,17.72,55.65C416.2,253.1,418.56,235.36,396.29,214.99z"
					/>
			</g>
			<g>
				<path style="fill:#BA68C8;" d="M454.96,236.3c-40.99,5.77-45.97,31.62-40.53,51.63c1.54,4.13,7.84,7.32,17.74-14.59l-10.41-0.51
					l12.93-3.89l4.72-8.65l-10.02-1.03l13.49-3.04C450.01,243.05,454.96,236.3,454.96,236.3z"/>
				<path style="opacity:0.2;fill:#FFFFFF;" d="M454.96,236.3c-40.99,5.77-45.97,31.62-40.53,51.63c1.54,4.13,7.84,7.32,17.74-14.59
					l-10.41-0.51l12.93-3.89l4.72-8.65l-10.02-1.03l13.49-3.04C450.01,243.05,454.96,236.3,454.96,236.3z"/>
				<path style="opacity:0.1;" d="M454.96,236.3c-40.99,5.77-45.97,31.62-40.53,51.63c1.54,4.13,7.84,7.32,17.74-14.59l-10.41-0.51
					l12.93-3.89l4.72-8.65l-10.02-1.03l13.49-3.04C450.01,243.05,454.96,236.3,454.96,236.3z"/>
				<path style="fill:#FFFFFF;" d="M442.85,240.82c-23.19,11.86-28.21,29.3-25.74,48.89C417.98,273.01,418.72,256.09,442.85,240.82z
					"/>
			</g>
			<g>
				<path style="fill:#BA68C8;" d="M372.53,245.98c37.59,0.61,44.97,23.36,42.31,42c-0.92,3.89-6.25,7.48-17.62-11.17l9.32-1.63
					l-12.09-2.06l-5.22-7.27l8.91-2.05l-12.5-1.23C377.75,251.52,372.53,245.98,372.53,245.98z"/>
				<path style="fill:#FFFFFF;" d="M383.95,248.71c22.23,8.09,28.7,23.25,28.68,41.18C409.97,274.93,407.41,259.77,383.95,248.71z"
					/>
				<path style="opacity:0.2;fill:#FFFFFF;" d="M372.53,245.98c37.59,0.61,44.97,23.36,42.31,42c-0.92,3.89-6.25,7.48-17.62-11.17
					l9.32-1.63l-12.09-2.06l-5.22-7.27l8.91-2.05l-12.5-1.23C377.75,251.52,372.53,245.98,372.53,245.98z"/>
			</g>
		</g>
		<g>
			<g>
				<path style="fill:#BA68C8;" d="M182.5,208.42c9.87,6.85,20.99,11.6,29.23,20.79c15.4,17.16,15.75,44.78,3.66,64.41
					c-12.09,19.63-34.58,31.43-57.48,34.13c-24.02,2.83-49.24-3.81-68.08-18.97C70.98,293.61,58.99,269.91,59,245.72
					c0.01-24.19,12.4-48.28,32.66-61.49c18.49-12.06,45.05-15.5,63.6-1.7c9.38,6.97,15.63,17.27,24.98,24.26
					C180.98,207.35,181.73,207.89,182.5,208.42z"/>
				<path style="opacity:0.2;" d="M182.5,208.42c9.87,6.85,20.99,11.6,29.23,20.79c15.4,17.16,15.75,44.78,3.66,64.41
					c-12.09,19.63-34.58,31.43-57.48,34.13c-24.02,2.83-49.24-3.81-68.08-18.97C70.98,293.61,58.99,269.91,59,245.72
					c0.01-24.19,12.4-48.28,32.66-61.49c18.49-12.06,45.05-15.5,63.6-1.7c9.38,6.97,15.63,17.27,24.98,24.26
					C180.98,207.35,181.73,207.89,182.5,208.42z"/>
				<path style="opacity:0.1;fill:#FFFFFF;" d="M182.5,208.42c9.87,6.85,20.99,11.6,29.23,20.79c15.4,17.16,15.75,44.78,3.66,64.41
					c-12.09,19.63-34.58,31.43-57.48,34.13c-24.02,2.83-49.24-3.81-68.08-18.97C70.98,293.61,58.99,269.91,59,245.72
					c0.01-24.19,12.4-48.28,32.66-61.49c18.49-12.06,45.05-15.5,63.6-1.7c9.38,6.97,15.63,17.27,24.98,24.26
					C180.98,207.35,181.73,207.89,182.5,208.42z"/>
				<path style="opacity:0.1;" d="M178.48,308.98c-0.02-0.16-0.04-0.33-0.07-0.49c-1.57-11-10.14-19.55-21.05-21.64
					c-9.5-1.82-18.69-5.32-26.97-10.33c-5.89-3.56-11.46-7.93-18.07-9.86c-6.1-1.78-13.7-1.51-19.48,1.13
					c5.56-5.83,15.08-8.4,22.69-5.76c-5.27-8.06-9.9-16.75-11.72-26.21c-1.82-9.46-0.53-19.84,5.18-27.6
					c4.84-6.59,12.73-10.85,20.9-11.29c8.17-0.44,16.46,2.96,21.98,8.99c5.65,6.18,8.83,14.88,12.54,22.38
					c2.66,5.39,5.42,10.91,9.81,15.02c6.63,6.2,16.16,8.43,23.03,14.36c7.79,6.72,11.15,17.48,11.19,27.77
					c0.02,6.95-1.28,13.78-3.02,20.53c-7.89,7.68-17.65,13.47-28.18,17.23C178.84,318.73,179.13,313.73,178.48,308.98z"/>
				<g>
					<path style="fill:#FFFFFF;" d="M71.89,242.4c0.4-20.58,10.19-40.62,26.17-53.59c9.78-7.94,21.67-13.05,34.05-14.96
						c2.3,0.23,4.57,0.61,6.81,1.14c-14.37,0.84-28.46,6.14-39.69,15.26c-15.57,12.63-25.09,32.14-25.49,52.18
						c-0.44,22.51,10.57,45.46,29.46,61.38c14.8,12.48,34.47,20.76,56.08,23.73c-0.46,0.06-0.92,0.13-1.38,0.18
						c-1.94,0.23-3.89,0.39-5.85,0.5c-19.2-3.72-36.59-11.64-50.05-22.99C82.7,288.97,71.44,265.47,71.89,242.4z"/>
				</g>
			</g>
			<g>
				<g>
					<g>
						<path style="fill:#37474F;" d="M187.19,325.54l-2.47,4.9c-3.5-3.23-4.13-5.85-4.13-5.85c1.13-4,2.45-8.07,3.1-10.05
							c0.34,2.76,2.22,5.13,3.01,7.82C187.01,323.4,187.15,324.46,187.19,325.54z"/>
						<path style="fill:#263238;" d="M187.07,330.56l-2.36-0.12l2.47-4.9C187.26,327.2,187.13,328.88,187.07,330.56z"/>
						<path style="fill:#455A64;" d="M185.28,308.75c0.83-1.25,1.86-2.35,2.93-3.42c-0.67,2.05-0.51,4.42,0.04,6.55
							c0.74,2.84,2.07,5.51,2.73,8.37c0.81,3.48,0.63,7.22,2.1,10.48c1.43,3.17,4.45,5.57,7.85,6.27c1.26,0.26,2.66,0.27,3.74-0.45
							c0.48-0.32,0.84-0.84,1.03-1.39c0.75,1.54,1.63,3.02,2.68,4.38c1.17,1.51,2.61,3.16,2.3,5.04c-0.26,1.55-1.74,2.68-3.29,3
							c-1.54,0.32-3.14,0-4.67-0.38c-3.28-0.82-6.55-1.92-9.35-3.81s-5.13-4.67-5.93-7.96c-0.39-1.58-0.42-3.21-0.37-4.86
							c0.05-1.68,0.19-3.37,0.12-5.02c-0.05-1.08-0.18-2.14-0.49-3.18c-0.79-2.69-2.67-5.06-3.01-7.82
							c-0.02-0.15-0.05-0.29-0.06-0.44C183.52,312.21,184.24,310.34,185.28,308.75z"/>
						<path style="opacity:0.1;" d="M185.28,308.75c0.83-1.25,1.86-2.35,2.93-3.42c-0.67,2.05-0.51,4.42,0.04,6.55
							c0.74,2.84,2.07,5.51,2.73,8.37c0.81,3.48,0.63,7.22,2.1,10.48c1.43,3.17,4.45,5.57,7.85,6.27c1.26,0.26,2.66,0.27,3.74-0.45
							c0.48-0.32,0.84-0.84,1.03-1.39c0.75,1.54,1.63,3.02,2.68,4.38c1.17,1.51,2.61,3.16,2.3,5.04c-0.26,1.55-1.74,2.68-3.29,3
							c-1.54,0.32-3.14,0-4.67-0.38c-3.28-0.82-6.55-1.92-9.35-3.81s-5.13-4.67-5.93-7.96c-0.39-1.58-0.42-3.21-0.37-4.86
							c0.05-1.68,0.19-3.37,0.12-5.02c-0.05-1.08-0.18-2.14-0.49-3.18c-0.79-2.69-2.67-5.06-3.01-7.82
							c-0.02-0.15-0.05-0.29-0.06-0.44C183.52,312.21,184.24,310.34,185.28,308.75z"/>
						<path style="fill:#AB6160;" d="M200.94,337c-3.41-0.7-6.42-3.1-7.85-6.27c-1.47-3.26-1.29-7-2.1-10.48
							c-0.67-2.86-2-5.52-2.73-8.37c-0.55-2.13-0.72-4.49-0.04-6.55c0.28-0.28,0.56-0.56,0.85-0.83c4.22,2.19,9.02,3.98,12.86,6.78
							c0.05,4.92,0.1,9.87,0.94,14.72c0.55,3.16,1.46,6.28,2.85,9.16c-0.18,0.55-0.54,1.07-1.03,1.39
							C203.6,337.26,202.2,337.25,200.94,337z"/>
					</g>
					<path style="fill:#C48281;" d="M215.26,324.01c0.7,4.07,3.82,12.36,3.82,12.36s-14.62,0.59-14.94-0.08l-4.3-6.64L215.26,324.01
						z"/>
					<path style="fill:#455A64;" d="M171.51,227.13l37.28,20.77c6.93,3.86,10.62,11.71,9.17,19.51l-7.24,38.97l5.94,18.85
						c-5.12,6.87-16.87,7.21-16.87,7.21c-6.56-13.15-11.37-18.73-15.09-29.75c-3.72-11.02-6.21-18.62-6.21-18.62l-30.96-8.46
						c-14.47-3.96-25.15-16.31-26.83-31.22c-0.53-4.68-0.55-7.88-0.55-7.88L171.51,227.13z"/>
					<path style="opacity:0.2;" d="M174.04,239.41c0.01,4.12-1.5,8.23-4.17,11.36l23.49,14.67c3.86,2.42,6.72,6.14,8.05,10.5
						l9.31,30.45l-8.4-33.91c-0.97-3.9-3.42-7.27-6.84-9.38l-21.48-13.21C176.49,243.67,174.04,239.41,174.04,239.41z"/>
					<g>
						<path style="fill:#37474F;" d="M211.15,355.27l-0.35,5.48c-4.49-1.6-6.1-3.75-6.1-3.75c-0.53-4.13-0.92-8.39-1.1-10.46
							c1.39,2.4,4.06,3.84,5.84,6C210.14,353.38,210.68,354.3,211.15,355.27z"/>
						<path style="fill:#263238;" d="M213.02,359.93l-2.21,0.82l0.35-5.48C211.87,356.77,212.41,358.37,213.02,359.93z"/>
						<path style="fill:#455A64;" d="M202.79,340.59c0.27-1.48,0.78-2.89,1.35-4.29c0.19,2.15,1.27,4.26,2.62,6
							c1.79,2.32,4.07,4.25,5.8,6.62c2.11,2.88,3.41,6.39,6.05,8.81c2.56,2.35,6.28,3.37,9.69,2.67c1.26-0.26,2.55-0.8,3.26-1.88
							c0.32-0.49,0.45-1.1,0.4-1.68c1.29,1.13,2.68,2.13,4.19,2.97c1.67,0.93,3.65,1.88,4.09,3.73c0.37,1.53-0.55,3.15-1.84,4.05
							c-1.29,0.9-2.89,1.23-4.45,1.48c-3.34,0.54-6.77,0.81-10.1,0.17s-6.55-2.28-8.58-4.98c-0.98-1.3-1.65-2.79-2.25-4.32
							c-0.61-1.56-1.15-3.17-1.87-4.66c-0.47-0.97-1.01-1.89-1.7-2.73c-1.79-2.16-4.45-3.6-5.84-6c-0.07-0.13-0.16-0.25-0.23-0.38
							C202.54,344.46,202.45,342.46,202.79,340.59z"/>
						<path style="fill:#C48281;" d="M228.29,360.4c-3.41,0.7-7.12-0.33-9.69-2.67c-2.64-2.41-3.94-5.93-6.05-8.81
							c-1.74-2.37-4.01-4.29-5.8-6.62c-1.35-1.74-2.43-3.85-2.62-6c0.15-0.37,0.3-0.73,0.45-1.1c4.74,0.35,9.86,0.12,14.49,1.18
							c1.98,4.51,3.97,9.04,6.65,13.16c1.74,2.69,3.81,5.2,6.22,7.3c0.05,0.58-0.08,1.2-0.4,1.68
							C230.85,359.6,229.56,360.14,228.29,360.4z"/>
					</g>
				</g>
				<g>
					<path style="fill:#263238;" d="M133.3,172.06c-6.08-13.91-6.46-30.22-1.04-44.4c1.74-4.54,4.2-9.05,8.23-11.77
						c5.15-3.48,11.83-3.43,18.05-3.25c3.3,0.09,6.67,0.2,9.77,1.34c3.1,1.14,5.64,3.59,6.46,6.79c4.06-0.76,8.17,2.46,9.26,6.44
						c1.1,3.98-0.34,8.34-2.87,11.61c-2.53,3.27-6.03,5.63-9.56,7.78c2.13,1.12,3.71,3.71,4.46,5.99c0.75,2.29,0.56,4.86-0.5,7.02
						c3.75-0.1,7.57,2.66,8.73,6.22c1.16,3.56,0.18,7.63-2.11,10.61s-5.74,4.91-9.36,5.86c-3.63,0.94-7.44,0.96-11.17,0.6
						c-3.86,3.74-10.94,3.66-15.78,1.34S135.45,176.99,133.3,172.06z"/>
					<g>
						<g>
							<g>
								<path style="fill:#C48281;" d="M167.85,162.68l0.95,0.01c6.35,0.07,14.39,4.39,18.32,15.48l15.26,29.56l-17.42,7.72
									l-9.53-27.9L167.85,162.68z"/>
							</g>
							<path style="fill:#AB6160;" d="M180.08,182.29c1.22,3.49,1.29,7.26,1.48,10.95c0.19,3.69,0.62,8.15,2.31,11.44
								c1.85-1.28,4.11-1.94,6.35-1.86c2.24,0.08,4.45,0.91,6.2,2.31c1.26,1.01,2.19,2.41,2.83,3.97l-14.31,6.34l-9.53-27.9
								l-4.69-15.38C175.02,174.13,178.53,177.83,180.08,182.29z"/>
						</g>
						<g>
							<path style="fill:#C48281;" d="M184.79,210.11c1.28-3.29,4.39-5.81,7.88-6.37c3.49-0.56,7.45,1.26,9.7,3.98
								c1.9,2.3,1.6,5.4,0.4,8.13c-1.88,4.28-7.12,6.76-11.62,5.51S183.1,214.47,184.79,210.11z"/>
						</g>
					</g>
					<path style="fill:#BA68C8;" d="M166.24,162.14c6.73,1.07,10.89,18.07,13.08,24.53c2.26,6.67-0.81,11.51-4.23,15.54l0,0
						c-1.25,1.48-1.83,3.42-1.58,5.34l7.07,26.27c-19.3,14.33-51.67,7.39-60.44,2.71c0-12,3.02-21.01,5.67-26.6
						c2.56-5.4,4.07-11.24,4.27-17.21l0.33-9.65l-2.33-16.64l16.76-3.99l14.77-0.66C159.63,161.79,164.05,161.79,166.24,162.14z"/>
					<path style="opacity:0.4;" d="M166.24,162.14c6.73,1.07,10.89,18.07,13.08,24.53c2.26,6.67-0.81,11.51-4.23,15.54l0,0
						c-1.25,1.48-1.83,3.42-1.58,5.34l7.07,26.27c-19.3,14.33-51.67,7.39-60.44,2.71c0-12,3.02-21.01,5.67-26.6
						c2.56-5.4,4.07-11.24,4.27-17.21l0.33-9.65l-2.33-16.64l16.76-3.99l14.77-0.66C159.63,161.79,164.05,161.79,166.24,162.14z"/>
					<g>
						<g>
							<g>
								<g style="enable-background:new    ;">
									<path style="fill:#455A64;" d="M166.4,238.09c0,0.03,0,0.05,0.01,0.07c0.01,0.03,0.02,0.06,0.04,0.08l1.56,1.79l0,0l0,0
										c-0.02-0.03-0.02-0.08-0.03-0.12c0.06,0.28,0.46,0.27,1.14-0.11l13.11-7.38c0.99-0.55,2.1-1.62,2.51-2.38l11.4-21.23
										c0.19-0.35,0.18-0.56,0.05-0.66c0.01,0.01,0.04,0,0.05,0.01l-1.56-1.79c-0.04-0.05-0.11-0.08-0.2-0.08
										c-0.03,0-0.06,0-0.09,0c-0.03,0-0.05,0.01-0.08,0.01c-0.01,0-0.01,0-0.02,0c0,0,0,0,0,0c-0.02,0-0.03,0.01-0.05,0.01
										c-0.02,0.01-0.05,0.01-0.07,0.02c-0.02,0.01-0.05,0.01-0.07,0.02c-0.02,0.01-0.04,0.02-0.07,0.02
										c-0.02,0.01-0.05,0.02-0.07,0.03c-0.02,0.01-0.05,0.02-0.07,0.03c-0.02,0.01-0.05,0.02-0.07,0.03s-0.05,0.02-0.07,0.04
										s-0.05,0.02-0.07,0.04c-0.03,0.01-0.05,0.03-0.08,0.04c-0.01,0.01-0.02,0.01-0.03,0.02l-13.11,7.38
										c-0.01,0.01-0.03,0.02-0.04,0.02c-0.03,0.01-0.05,0.03-0.08,0.04c-0.02,0.01-0.05,0.03-0.07,0.04
										c-0.02,0.01-0.05,0.03-0.07,0.04c-0.02,0.01-0.04,0.03-0.06,0.04c-0.02,0.01-0.04,0.02-0.06,0.04
										c-0.02,0.01-0.04,0.03-0.06,0.04c-0.01,0.01-0.03,0.02-0.04,0.03c-0.01,0.01-0.03,0.02-0.04,0.03
										c-0.01,0.01-0.03,0.02-0.04,0.03c-0.01,0.01-0.03,0.02-0.04,0.03c-0.01,0.01-0.02,0.01-0.03,0.02
										c-0.01,0.01-0.02,0.01-0.03,0.02c-0.01,0.01-0.02,0.01-0.03,0.02c-0.01,0.01-0.02,0.01-0.03,0.02
										c-0.01,0.01-0.02,0.01-0.03,0.02c-0.01,0.01-0.02,0.01-0.03,0.02c-0.01,0-0.02,0.01-0.02,0.02
										c-0.01,0.01-0.01,0.01-0.02,0.02s-0.02,0.01-0.02,0.02c-0.01,0.01-0.01,0.01-0.02,0.02s-0.02,0.01-0.02,0.02
										c-0.01,0.01-0.02,0.01-0.02,0.02c-0.01,0.01-0.02,0.01-0.02,0.02c-0.01,0.01-0.02,0.01-0.02,0.02
										c-0.01,0.01-0.02,0.01-0.02,0.02c-0.01,0.01-0.02,0.01-0.02,0.02s-0.02,0.01-0.02,0.02s-0.02,0.01-0.02,0.02
										c-0.01,0.01-0.02,0.02-0.04,0.03s-0.02,0.02-0.04,0.03c-0.01,0.01-0.02,0.02-0.04,0.03c-0.01,0.01-0.02,0.02-0.04,0.03
										c-0.06,0.05-0.11,0.1-0.17,0.15c-0.01,0.01-0.03,0.03-0.04,0.04c-0.01,0.01-0.03,0.03-0.04,0.04
										c-0.01,0.01-0.03,0.02-0.04,0.04c-0.01,0.01-0.02,0.02-0.02,0.02c-0.01,0.01-0.02,0.02-0.02,0.02
										c-0.01,0.01-0.02,0.02-0.02,0.02s-0.02,0.02-0.02,0.02c-0.01,0.01-0.02,0.02-0.02,0.02c-0.01,0.01-0.01,0.01-0.02,0.02
										c-0.01,0.01-0.01,0.01-0.02,0.02c-0.01,0.01-0.01,0.01-0.02,0.02c-0.01,0.01-0.01,0.01-0.02,0.02s-0.01,0.01-0.02,0.02
										c-0.01,0.01-0.01,0.01-0.02,0.02c-0.01,0.01-0.01,0.02-0.02,0.02c-0.01,0.01-0.02,0.02-0.02,0.03
										c-0.01,0.01-0.02,0.02-0.02,0.02c-0.01,0.01-0.02,0.02-0.02,0.03s-0.02,0.02-0.02,0.03s-0.02,0.02-0.02,0.03
										c-0.01,0.01-0.02,0.02-0.03,0.03c-0.01,0.01-0.02,0.02-0.03,0.03c-0.01,0.01-0.02,0.02-0.03,0.03
										c-0.01,0.01-0.02,0.03-0.03,0.04c-0.01,0.02-0.03,0.03-0.04,0.05s-0.03,0.03-0.04,0.05c-0.02,0.02-0.03,0.04-0.05,0.06
										c-0.02,0.02-0.03,0.04-0.05,0.06c-0.02,0.02-0.03,0.04-0.05,0.07c-0.02,0.02-0.04,0.05-0.05,0.07
										c-0.02,0.02-0.03,0.05-0.05,0.07c-0.02,0.02-0.03,0.05-0.05,0.07c-0.02,0.02-0.03,0.04-0.04,0.07
										c-0.01,0.02-0.03,0.04-0.04,0.06c-0.01,0.02-0.03,0.04-0.04,0.06c-0.01,0.02-0.02,0.04-0.03,0.06l-11.4,21.23c0,0,0,0,0,0
										c-0.01,0.02-0.02,0.04-0.03,0.06s-0.02,0.04-0.03,0.06s-0.02,0.04-0.02,0.06c-0.01,0.02-0.01,0.04-0.02,0.06
										c-0.01,0.02-0.01,0.04-0.02,0.06c-0.01,0.02-0.01,0.04-0.01,0.06c0,0.01,0,0.02,0,0.03c0,0,0,0,0,0c0,0.01,0,0.01,0,0.02
										C166.4,238.05,166.4,238.07,166.4,238.09z M195.82,208.12c0.01,0,0.03-0.02,0.05-0.02c0,0,0,0,0,0
										c0.04-0.01,0.05,0.02,0.09,0.02C195.91,208.12,195.88,208.11,195.82,208.12z M180.57,216.89L180.57,216.89
										c0.11-0.11,0.24-0.21,0.36-0.31C180.81,216.69,180.68,216.78,180.57,216.89z M179.95,217.55L179.95,217.55
										c0.05-0.06,0.11-0.11,0.16-0.17C180.06,217.44,180,217.49,179.95,217.55z M167.97,239.8
										C167.97,239.8,167.97,239.8,167.97,239.8c0.02-0.11,0.06-0.24,0.14-0.39c-0.09,0.18-0.13,0.31-0.14,0.42
										C167.97,239.82,167.96,239.81,167.97,239.8z"/>
								</g>
							</g>
							<path style="opacity:0.15;fill:#FFFFFF;" d="M166.4,238.03c0-0.01,0-0.01,0-0.02c0,0,0,0,0,0c0-0.01,0-0.02,0-0.03
								c0-0.02,0.01-0.04,0.01-0.06c0-0.02,0.01-0.04,0.02-0.06c0.01-0.02,0.01-0.04,0.02-0.06c0.01-0.02,0.02-0.04,0.02-0.06
								s0.02-0.04,0.03-0.06s0.02-0.04,0.03-0.06c0,0,0,0,0,0l11.4-21.23l1.56,1.79l-11.4,21.23c-0.08,0.15-0.13,0.28-0.14,0.39
								c0,0,0,0,0,0c-0.01,0.1,0,0.18,0.05,0.24l0,0l0,0l0,0l-1.56-1.79c-0.02-0.02-0.04-0.05-0.04-0.08
								c-0.01-0.02-0.01-0.05-0.01-0.07C166.4,238.07,166.4,238.05,166.4,238.03z"/>
							<path style="opacity:0.2;fill:#FFFFFF;" d="M177.98,216.33c0.01-0.02,0.02-0.04,0.04-0.06c0.01-0.02,0.03-0.04,0.04-0.06
								c0.01-0.02,0.03-0.04,0.04-0.07c0.01-0.02,0.03-0.05,0.05-0.07c0.02-0.02,0.03-0.05,0.05-0.07c0.02-0.02,0.03-0.05,0.05-0.07
								c0.02-0.02,0.03-0.04,0.05-0.07c0.02-0.02,0.03-0.04,0.05-0.06c0.02-0.02,0.03-0.04,0.05-0.06c0.01-0.02,0.03-0.03,0.04-0.05
								s0.03-0.03,0.04-0.05c0.01-0.01,0.02-0.03,0.03-0.04c0.01-0.01,0.02-0.02,0.03-0.03c0.01-0.01,0.02-0.02,0.03-0.03
								c0.01-0.01,0.02-0.02,0.03-0.03c0.01-0.01,0.02-0.02,0.02-0.03s0.02-0.02,0.02-0.03s0.02-0.02,0.02-0.03
								c0.01-0.01,0.02-0.02,0.02-0.02c0.01-0.01,0.02-0.02,0.02-0.03c0.01-0.01,0.01-0.02,0.02-0.02c0.01-0.01,0.01-0.01,0.02-0.02
								c0.01-0.01,0.01-0.01,0.02-0.02s0.01-0.01,0.02-0.02c0.01-0.01,0.01-0.01,0.02-0.02c0.01-0.01,0.01-0.01,0.02-0.02
								c0.01-0.01,0.01-0.02,0.02-0.02c0.01-0.01,0.02-0.02,0.02-0.02c0.01-0.01,0.02-0.02,0.02-0.02s0.02-0.02,0.02-0.02
								c0.01-0.01,0.02-0.01,0.02-0.02c0.01-0.01,0.02-0.02,0.02-0.02c0.01-0.01,0.03-0.02,0.04-0.04c0.01-0.01,0.03-0.03,0.04-0.04
								c0.01-0.01,0.03-0.03,0.04-0.04c0.05-0.05,0.11-0.1,0.17-0.15c0.01-0.01,0.02-0.02,0.04-0.03c0.01-0.01,0.02-0.02,0.04-0.03
								c0.01-0.01,0.02-0.02,0.04-0.03s0.02-0.02,0.04-0.03c0.01-0.01,0.02-0.01,0.02-0.02s0.02-0.01,0.02-0.02s0.02-0.01,0.02-0.02
								c0.01-0.01,0.02-0.01,0.02-0.02c0.01-0.01,0.02-0.01,0.02-0.02c0.01-0.01,0.02-0.01,0.02-0.02c0.01-0.01,0.02-0.01,0.02-0.02
								c0.01-0.01,0.02-0.01,0.02-0.02s0.01-0.01,0.02-0.02c0.01-0.01,0.02-0.01,0.02-0.02s0.02-0.01,0.02-0.02
								c0.01-0.01,0.02-0.01,0.02-0.02c0.01-0.01,0.02-0.01,0.03-0.02c0.01-0.01,0.02-0.01,0.03-0.02c0.01-0.01,0.02-0.01,0.03-0.02
								c0.01-0.01,0.02-0.01,0.03-0.02c0.01-0.01,0.02-0.01,0.03-0.02c0.01-0.01,0.02-0.01,0.03-0.02c0.01-0.01,0.03-0.02,0.04-0.03
								c0.01-0.01,0.03-0.02,0.04-0.03c0.01-0.01,0.03-0.02,0.04-0.03c0.01-0.01,0.03-0.02,0.04-0.03c0.02-0.01,0.04-0.03,0.06-0.04
								c0.02-0.01,0.04-0.02,0.06-0.04c0.02-0.01,0.04-0.03,0.06-0.04c0.02-0.01,0.05-0.03,0.07-0.04c0.02-0.01,0.05-0.03,0.07-0.04
								c0.03-0.01,0.05-0.03,0.08-0.04c0.01-0.01,0.03-0.02,0.04-0.02l13.11-7.38c0.01-0.01,0.02-0.01,0.03-0.02
								c0.03-0.01,0.05-0.03,0.08-0.04c0.02-0.01,0.05-0.03,0.07-0.04s0.05-0.02,0.07-0.04s0.05-0.02,0.07-0.03
								c0.02-0.01,0.05-0.02,0.07-0.03c0.02-0.01,0.05-0.02,0.07-0.03c0.02-0.01,0.05-0.02,0.07-0.02c0.02-0.01,0.05-0.02,0.07-0.02
								c0.03-0.01,0.05-0.01,0.07-0.02c0.02,0,0.03-0.01,0.05-0.01c0,0,0,0,0,0c0.01,0,0.01,0,0.02,0c0.03,0,0.05-0.01,0.08-0.01
								c0.03,0,0.06,0,0.09,0c0.09,0,0.16,0.03,0.2,0.08l1.56,1.79c-0.07-0.08-0.2-0.1-0.39-0.06c0,0,0,0,0,0
								c-0.19,0.04-0.43,0.14-0.72,0.3l-13.11,7.37c-0.24,0.14-0.5,0.31-0.74,0.5c0,0,0,0,0,0c-0.25,0.19-0.49,0.4-0.72,0.62h0
								c-0.23,0.22-0.44,0.44-0.62,0.66c0,0,0,0,0,0c-0.18,0.22-0.33,0.43-0.43,0.62l-1.56-1.79
								C177.96,216.37,177.97,216.35,177.98,216.33z"/>
						</g>
						<path style="fill:#C48281;" d="M121.62,172c1.86-3.19,4.3-5.64,7.98-5.92c0,0,6.04,3.12,6.04,17.28l-0.4,35.43l-0.01,0
							c0.87,0.35,1.73,0.72,2.6,1.08c7.17,2.98,15.13,5.63,22.79,6.89c3.85-3.25,9.34-4.93,14.37-4.88l-1.93,3.6
							c3.66,2.35,11.94-1.88,11.94-1.88c0.61,5.16-2.74,10.52-7.17,13.24c-4.44,2.71-46.78-1.27-55.77-7.09
							c-5.9-3.82-4.51-40.35-4.51-40.35C117.14,183.32,118.55,177.26,121.62,172z"/>
						<path style="fill:#C48281;" d="M193.95,212.9c0.12,1.12,0.61,3.12,0.48,4.24c-0.38,3.35-1.73,6.64-4.08,9.06
							c-0.5,0.52-1.07,1.01-1.76,1.24s-1.51,0.17-2.04-0.32c-0.56-0.52-0.67-1.37-0.71-2.13c-0.07-1.15-0.08-2.31,0.19-3.43
							c0.27-1.12,0.87-2.19,1.81-2.85c0.69-0.48,1.51-0.71,2.29-1.01c0.78-0.3,1.43-0.82,2.04-1.48L193.95,212.9z"/>
					</g>
					<g>
						<g>
							<path style="fill:#C48281;" d="M159.63,155.21v13.38c1.31,1.24,2.57,2.66,2.69,4.42c0.12,1.69-0.92,3.34-2.39,4.18
								c-1.47,0.84-3.29,0.93-4.92,0.48s-3.08-1.4-4.35-2.52c-3.44-3.06-5.8-8.17-5.8-12.7v-13.55L159.63,155.21z"/>
							<path style="fill:#AB6160;" d="M145.43,148.89c1.39,7.36,4.26,13.74,14.2,16.03v-9.72L145.43,148.89z"/>
						</g>
						<path style="fill:#C48281;" d="M148.89,141.13c0.12,0.89,0.2,2.67,0.02,3.55c-0.18,0.88-0.6,1.73-1.27,2.32
							c-0.68,0.59-1.55,0.83-2.42,0.61c0.56-2.29-0.95-4.89-3.21-5.55s-4.93,0.74-5.67,2.98c-0.54,1.61-0.14,3.42,0.77,4.85
							s2.28,2.51,3.73,3.38c1.73,0.72,3.74-0.05,4.74-1.64c4.26,5.89,11.94,10.49,19.31,10.17c2-0.09,4.04-0.58,5.67-1.74
							c2.87-2.04,3.21-5.28,3.69-8.47c0.61-4.04,0.89-8.16,0.41-12.23c-0.67-5.62-2.93-11.21-7.12-15.03
							C164.52,136.4,153.19,140.41,148.89,141.13z"/>
						<g>
							<polygon style="fill:#AB6160;" points="164.26,140.38 169.04,146.79 164.29,148.2 							"/>
							<path style="fill:#AB6160;" d="M159.87,151.05c1.29,0.47,2.58,0.93,3.87,1.4c-0.45,0.89-1.76,1.4-2.71,1.09
								C160.08,153.23,159.7,152.03,159.87,151.05z"/>
							<path style="opacity:0.3;" d="M159.87,151.05c1.29,0.47,2.58,0.93,3.87,1.4c-0.45,0.89-1.76,1.4-2.71,1.09
								C160.08,153.23,159.7,152.03,159.87,151.05z"/>
							<path style="fill:#AB6160;" d="M162.32,153.52c-0.43,0.12-0.89,0.14-1.29,0.01c-0.74-0.24-1.13-1.03-1.19-1.84
								c0.52-0.05,1.06,0.06,1.5,0.35C161.85,152.39,162.2,152.93,162.32,153.52z"/>
							<circle style="fill:#263238;" cx="158.67" cy="141.38" r="1.4"/>
							<circle style="fill:#263238;" cx="170.41" cy="140.88" r="1.4"/>
							<path style="fill:#263238;" d="M170.35,135.31c1.04,0.71,2.07,1.42,3.11,2.13c0.3-0.74,0-1.69-0.61-2.19
								C172.22,134.75,171.01,134.86,170.35,135.31z"/>
							<path style="fill:#263238;" d="M158.37,135.19c-1.03,0.72-2.06,1.44-3.09,2.16c-0.31-0.73-0.02-1.69,0.6-2.2
								C156.49,134.65,157.71,134.75,158.37,135.19z"/>
						</g>
					</g>
				</g>
			</g>
		</g>
	</g>
</g>
</svg>
