
<svg width="320" height="340" viewBox="0 0 320 340" fill="none" xmlns="http://www.w3.org/2000/svg">
<path opacity="0.05" d="M2.28882e-05 305.57H15.4L15.4 187.05H2.28882e-05L2.28882e-05 305.57Z" fill="black"/>
<path opacity="0.05" d="M150.19 187.05H15.4V305.57H150.19V187.05Z" fill="black"/>
<path d="M55.82 162.67C54.9602 161.445 54.4582 160.004 54.37 158.51C54.2389 156.999 54.3709 155.476 54.76 154.01C55.5452 151.11 56.9433 148.413 58.86 146.1C59.7973 144.973 60.799 143.901 61.86 142.89C62.42 142.42 62.96 141.94 63.53 141.48C64.0792 141.009 64.6534 140.569 65.25 140.16C66.4304 139.341 67.652 138.584 68.91 137.89C70.21 137.25 71.49 136.62 72.85 136.11C71.85 137.23 70.85 138.21 69.85 139.2C68.85 140.19 67.9 141.2 66.9 142.2C65.9 143.2 65.02 144.2 64.06 145.2C63.59 145.69 63.17 146.2 62.73 146.73C62.2669 147.214 61.8329 147.725 61.43 148.26C59.7351 150.286 58.3129 152.525 57.2 154.92C56.6531 156.086 56.2404 157.311 55.97 158.57C55.6685 159.916 55.6176 161.306 55.82 162.67Z" fill="#00B0A3"/>
<path d="M32.4501 158.48C32.8784 157.29 33.0983 156.035 33.1 154.77C33.0973 154.184 33.0538 153.6 32.97 153.02C32.8512 152.463 32.6942 151.915 32.5 151.38C31.5989 149.251 30.2321 147.351 28.5 145.82C28.08 145.4 27.5801 145.04 27.1301 144.64C26.6824 144.222 26.2045 143.837 25.7001 143.49C24.7001 142.79 23.7501 141.96 22.7001 141.31C22.1801 140.96 21.7001 140.61 21.1301 140.24C20.5601 139.87 20.13 139.49 19.53 139.16C18.4154 138.455 17.3374 137.694 16.3 136.88C17.6168 137.076 18.922 137.343 20.21 137.68C20.8581 137.83 21.4934 138.031 22.11 138.28C22.73 138.52 23.35 138.76 23.97 139.02L24.9 139.41C25.2 139.55 25.49 139.73 25.79 139.89C26.38 140.21 26.96 140.56 27.55 140.89C28.1394 141.24 28.701 141.634 29.23 142.07C29.76 142.51 30.32 142.9 30.82 143.39C32.9901 145.322 34.4775 147.904 35.06 150.75C35.1365 151.108 35.1734 151.474 35.17 151.84C35.17 152.21 35.17 152.58 35.17 152.94C35.1056 153.658 34.9579 154.366 34.73 155.05C34.3026 156.383 33.5132 157.57 32.4501 158.48Z" fill="#00B0A3"/>
<path d="M33.52 158.48C34.055 155.829 34.1193 153.104 33.71 150.43C33.3004 147.902 32.4437 145.467 31.18 143.24L30.18 141.59C29.81 141.06 29.39 140.59 29.02 140.03L28.44 139.23L27.77 138.5C27.33 138.01 26.89 137.5 26.46 136.99C25.52 136.04 24.53 135.11 23.57 134.11C22.61 133.11 21.5 132.27 20.51 131.21C21.8698 131.659 23.205 132.18 24.51 132.77C25.7775 133.458 27.0061 134.216 28.19 135.04C28.75 135.5 29.32 135.97 29.87 136.45L30.7 137.17L31.44 138C31.92 138.56 32.44 139.12 32.87 139.71L34.07 141.61C35.5781 144.248 36.3516 147.242 36.31 150.28C36.3037 153.245 35.3234 156.126 33.52 158.48Z" fill="#00B0A3"/>
<path d="M54.54 159.96C52.5508 157.469 50.8718 154.746 49.54 151.85C48.1758 148.955 47.0747 145.943 46.25 142.85C45.445 139.736 44.9822 136.544 44.87 133.33C44.7814 130.102 45.2725 126.884 46.32 123.83C46.6 127.03 46.95 130.06 47.47 133.07C47.99 136.08 48.72 139.07 49.47 142.07C50.22 145.07 51.1 147.98 51.97 150.95C52.84 153.92 53.72 156.87 54.54 159.96Z" fill="#00B0A3"/>
<path d="M53.5 159.46C51.1231 157.172 49.0008 154.634 47.17 151.89C45.3173 149.159 43.6886 146.283 42.3 143.29C40.9093 140.276 39.8142 137.135 39.03 133.91C38.2474 130.669 38.0041 127.32 38.31 124C39.31 127.17 40.31 130.17 41.53 133.14C42.75 136.11 44.01 138.99 45.32 141.9C46.63 144.81 48.04 147.68 49.43 150.59C50.82 153.5 52.21 156.41 53.5 159.46Z" fill="#00B0A3"/>
<path d="M57.57 163.27C54.736 161.563 52.097 159.551 49.7 157.27C47.2903 155.02 45.0633 152.583 43.04 149.98C41.0119 147.352 39.2405 144.536 37.75 141.57C36.2704 138.582 35.2875 135.374 34.84 132.07C36.53 134.93 38.21 137.62 40.02 140.25C41.83 142.88 43.74 145.41 45.67 147.95C47.6 150.49 49.67 152.95 51.61 155.5C53.55 158.05 55.63 160.59 57.57 163.27Z" fill="#00B0A3"/>
<path d="M51.4501 158.91C48.7155 157.544 46.1735 155.822 43.8901 153.79C41.5895 151.778 39.4927 149.543 37.6301 147.12C35.7626 144.676 34.1822 142.025 32.9201 139.22C31.6628 136.406 30.9048 133.394 30.6801 130.32C32.2101 132.99 33.6101 135.54 35.2301 137.98C36.8501 140.42 38.5001 142.79 40.2301 145.1C41.9601 147.41 43.8301 149.7 45.7101 151.97C47.5901 154.24 49.5501 156.52 51.4501 158.91Z" fill="#00B0A3"/>
<path d="M56.34 161.7C55.2168 160.901 54.271 159.878 53.562 158.696C52.853 157.513 52.3961 156.197 52.22 154.83C51.848 152.041 52.2999 149.205 53.52 146.67L53.94 145.73L54.45 144.85L55.52 143.12C55.9333 142.587 56.3533 142.067 56.78 141.56C57.1913 141.039 57.6356 140.545 58.11 140.08C59.0578 139.164 60.0595 138.306 61.11 137.51C62.182 136.752 63.2972 136.058 64.45 135.43C63.7813 136.539 63.057 137.614 62.28 138.65C61.54 139.65 60.88 140.75 60.14 141.74C59.4 142.73 58.85 143.83 58.14 144.84L57.31 146.42L56.87 147.2L56.54 148.01C55.5206 150.092 54.9257 152.356 54.79 154.67C54.7062 157.106 55.2393 159.525 56.34 161.7Z" fill="#00B0A3"/>
<path d="M54.49 158.51C52.4778 156.549 51.0157 154.094 50.25 151.39C49.41 148.587 49.3684 145.605 50.13 142.78C50.509 141.366 51.099 140.018 51.88 138.78C52.637 137.553 53.559 136.436 54.62 135.46C56.6548 133.545 59.1106 132.133 61.79 131.34C59.9133 133.156 58.1688 135.105 56.57 137.17C55.833 138.155 55.1838 139.202 54.63 140.3C54.0764 141.365 53.6437 142.489 53.34 143.65C52.7095 146.002 52.5297 148.451 52.81 150.87C53.0989 153.469 53.662 156.03 54.49 158.51Z" fill="#00B0A3"/>
<path d="M49.5999 156.14L33.95 141.12L34.5799 155.85L49.5999 156.14Z" fill="#00B0A3"/>
<path opacity="0.05" d="M66.7 154.54H25.13L30.57 185.43H61.26L66.7 154.54Z" fill="black"/>
<path opacity="0.05" d="M128.35 0H29.13V105.48H128.35V0Z" fill="black"/>
<path opacity="0.05" d="M37.4399 8.3L37.4399 97.16H120.04V8.3H37.4399Z" fill="black"/>
<path d="M311.744 217.265L310.453 240.81L311.451 240.864L312.743 217.32L311.744 217.265Z" fill="#00B0A3"/>
<path d="M312.847 197.292L312.182 209.424L313.18 209.479L313.846 197.347L312.847 197.292Z" fill="#00B0A3"/>
<path d="M291.77 285.69H174.55C172.777 285.712 171.018 285.367 169.385 284.676C167.751 283.986 166.278 282.966 165.057 281.68C163.837 280.393 162.895 278.869 162.292 277.201C161.688 275.534 161.436 273.76 161.55 271.99L175.05 25.87C175.301 22.1815 176.933 18.7231 179.621 16.184C182.308 13.645 185.853 12.2118 189.55 12.17H306.78C308.549 12.1568 310.301 12.508 311.928 13.2017C313.555 13.8953 315.021 14.9166 316.236 16.2019C317.451 17.4872 318.388 19.009 318.99 20.6723C319.591 22.3357 319.843 24.105 319.73 25.87L306.22 271.99C305.972 275.671 304.348 279.124 301.67 281.662C298.993 284.2 295.459 285.638 291.77 285.69Z" fill="#00B0A3"/>
<path opacity="0.8" d="M284.68 285.69H174.55C172.777 285.712 171.018 285.367 169.385 284.676C167.751 283.986 166.278 282.966 165.057 281.68C163.837 280.393 162.895 278.869 162.292 277.201C161.688 275.534 161.436 273.76 161.55 271.99L175.05 25.87C175.301 22.1815 176.933 18.7231 179.621 16.184C182.308 13.645 185.853 12.2118 189.55 12.17H299.69C301.459 12.1553 303.212 12.5055 304.84 13.1987C306.467 13.8918 307.935 14.9131 309.15 16.1987C310.365 17.4843 311.302 19.0067 311.903 20.6707C312.503 22.3347 312.754 24.1046 312.64 25.87L299.14 271.99C298.887 275.671 297.26 279.122 294.582 281.66C291.903 284.198 288.369 285.636 284.68 285.69Z" fill="white"/>
<path d="M230.1 56.79H198.47C197.723 56.7958 196.983 56.6474 196.296 56.3541C195.609 56.0608 194.99 55.629 194.478 55.0855C193.965 54.5421 193.57 53.8988 193.318 53.1958C193.065 52.4928 192.96 51.7453 193.01 51C193.115 49.4466 193.801 47.9898 194.931 46.9189C196.062 45.848 197.553 45.2416 199.11 45.22H230.74C231.486 45.2128 232.226 45.36 232.913 45.6521C233.6 45.9443 234.219 46.3752 234.732 46.9179C235.245 47.4605 235.64 48.1032 235.892 48.8057C236.145 49.5081 236.25 50.2552 236.2 51C236.095 52.5543 235.409 54.0123 234.279 55.0848C233.149 56.1573 231.658 56.766 230.1 56.79Z" fill="white"/>
<path d="M236.2 51C236.021 53.8038 234.787 56.4359 232.746 58.3671C230.705 60.2983 228.01 61.3854 225.2 61.41C223.855 61.4255 222.521 61.1624 221.282 60.6372C220.043 60.112 218.926 59.3361 218.002 58.3582C217.078 57.3804 216.366 56.2219 215.911 54.9555C215.457 53.6892 215.269 52.3424 215.36 51C215.539 48.1962 216.773 45.5641 218.814 43.6329C220.855 41.7018 223.551 40.6146 226.36 40.59C227.705 40.5745 229.04 40.8376 230.278 41.3628C231.517 41.888 232.634 42.664 233.558 43.6418C234.482 44.6196 235.194 45.7781 235.649 47.0445C236.104 48.3108 236.291 49.6576 236.2 51Z" fill="#00B0A3"/>
<path d="M228.07 93.8H196.44C195.693 93.8058 194.953 93.6574 194.266 93.3641C193.579 93.0708 192.96 92.639 192.448 92.0955C191.935 91.5521 191.54 90.9088 191.288 90.2058C191.035 89.5028 190.931 88.7553 190.98 88.01C191.085 86.4566 191.771 84.9998 192.901 83.9289C194.032 82.858 195.523 82.2515 197.08 82.23H228.71C229.457 82.2228 230.196 82.37 230.883 82.6621C231.57 82.9543 232.19 83.3852 232.702 83.9279C233.215 84.4705 233.61 85.1132 233.862 85.8156C234.115 86.5181 234.22 87.2652 234.17 88.01C234.065 89.5643 233.379 91.0223 232.249 92.0948C231.12 93.1673 229.628 93.776 228.07 93.8Z" fill="white"/>
<path d="M216.861 95.2944C221.097 91.1738 221.368 84.5825 217.467 80.5723C213.566 76.5621 206.97 76.6516 202.734 80.7722C198.498 84.8928 198.226 91.4841 202.128 95.4943C206.029 99.5045 212.625 99.415 216.861 95.2944Z" fill="#00B0A3"/>
<path opacity="0.3" d="M216.861 95.2944C221.097 91.1738 221.368 84.5825 217.467 80.5723C213.566 76.5621 206.97 76.6516 202.734 80.7722C198.498 84.8928 198.226 91.4841 202.128 95.4943C206.029 99.5045 212.625 99.415 216.861 95.2944Z" fill="#FAFAFA"/>
<path d="M192.38 167.82H223.97C225.528 167.796 227.02 167.187 228.149 166.115C229.279 165.042 229.965 163.584 230.07 162.03C230.12 161.284 230.015 160.536 229.761 159.833C229.508 159.13 229.112 158.487 228.599 157.944C228.085 157.401 227.465 156.971 226.776 156.679C226.088 156.388 225.347 156.241 224.6 156.25H193.02C191.462 156.271 189.969 156.877 188.838 157.948C187.706 159.019 187.018 160.476 186.91 162.03C186.862 162.776 186.968 163.524 187.222 164.227C187.475 164.93 187.871 165.573 188.384 166.116C188.898 166.659 189.517 167.091 190.205 167.384C190.892 167.677 191.633 167.826 192.38 167.82Z" fill="white"/>
<path d="M204.393 169.299C208.629 165.179 208.9 158.587 204.999 154.577C201.098 150.567 194.502 150.657 190.266 154.777C186.03 158.898 185.759 165.489 189.66 169.499C193.561 173.509 200.157 173.42 204.393 169.299Z" fill="#00B0A3"/>
<path opacity="0.7" d="M204.393 169.299C208.629 165.179 208.9 158.587 204.999 154.577C201.098 150.567 194.502 150.657 190.266 154.777C186.03 158.898 185.759 165.489 189.66 169.499C193.561 173.509 200.157 173.42 204.393 169.299Z" fill="#FAFAFA"/>
<path d="M221.97 204.83H190.35C189.603 204.836 188.862 204.687 188.175 204.394C187.487 204.101 186.868 203.669 186.354 203.126C185.841 202.583 185.445 201.94 185.192 201.237C184.938 200.534 184.832 199.786 184.88 199.04C184.988 197.486 185.676 196.029 186.808 194.958C187.939 193.887 189.432 193.281 190.99 193.26H222.61C223.357 193.251 224.098 193.398 224.786 193.689C225.475 193.981 226.095 194.411 226.609 194.954C227.122 195.497 227.518 196.14 227.771 196.843C228.025 197.546 228.13 198.294 228.08 199.04C227.975 200.596 227.288 202.055 226.156 203.128C225.024 204.201 223.529 204.808 221.97 204.83Z" fill="white"/>
<path d="M228.08 199.04C227.901 201.844 226.667 204.476 224.626 206.407C222.586 208.338 219.89 209.425 217.08 209.45C215.734 209.465 214.4 209.202 213.161 208.677C211.921 208.152 210.804 207.376 209.879 206.399C208.954 205.421 208.241 204.263 207.785 202.996C207.329 201.73 207.14 200.383 207.23 199.04C207.414 196.238 208.649 193.608 210.689 191.678C212.729 189.748 215.422 188.659 218.23 188.63C219.576 188.613 220.912 188.875 222.151 189.4C223.391 189.924 224.509 190.7 225.435 191.678C226.36 192.656 227.073 193.815 227.528 195.082C227.983 196.349 228.171 197.697 228.08 199.04Z" fill="#00B0A3"/>
<path d="M194.41 130.81H226.04C227.598 130.786 229.089 130.177 230.219 129.105C231.349 128.032 232.035 126.574 232.14 125.02C232.19 124.274 232.085 123.526 231.831 122.823C231.578 122.12 231.182 121.477 230.669 120.934C230.155 120.391 229.535 119.961 228.846 119.669C228.158 119.378 227.417 119.231 226.67 119.24H195.05C193.493 119.262 192.002 119.868 190.871 120.939C189.741 122.01 189.055 123.467 188.95 125.02C188.901 125.765 189.005 126.513 189.258 127.216C189.51 127.919 189.905 128.562 190.418 129.106C190.93 129.649 191.549 130.081 192.236 130.374C192.923 130.667 193.663 130.816 194.41 130.81Z" fill="white"/>
<path d="M188.97 125.02C188.879 126.362 189.067 127.709 189.521 128.976C189.976 130.242 190.688 131.4 191.612 132.378C192.536 133.356 193.653 134.132 194.892 134.657C196.131 135.182 197.465 135.446 198.81 135.43C201.619 135.405 204.316 134.318 206.356 132.387C208.397 130.456 209.631 127.824 209.81 125.02C209.901 123.678 209.714 122.331 209.259 121.064C208.804 119.798 208.092 118.64 207.168 117.662C206.244 116.684 205.127 115.908 203.888 115.383C202.65 114.858 201.315 114.594 199.97 114.61C197.161 114.635 194.465 115.722 192.424 117.653C190.383 119.584 189.149 122.216 188.97 125.02Z" fill="#00B0A3"/>
<path opacity="0.7" d="M188.97 125.02C188.879 126.362 189.067 127.709 189.521 128.976C189.976 130.242 190.688 131.4 191.612 132.378C192.536 133.356 193.653 134.132 194.892 134.657C196.131 135.182 197.465 135.446 198.81 135.43C201.619 135.405 204.316 134.318 206.356 132.387C208.397 130.456 209.631 127.824 209.81 125.02C209.901 123.678 209.714 122.331 209.259 121.064C208.804 119.798 208.092 118.64 207.168 117.662C206.244 116.684 205.127 115.908 203.888 115.383C202.65 114.858 201.315 114.594 199.97 114.61C197.161 114.635 194.465 115.722 192.424 117.653C190.383 119.584 189.149 122.216 188.97 125.02Z" fill="#FAFAFA"/>
<path d="M299.38 49.27H252.5C252.202 49.2706 251.906 49.2099 251.632 49.0917C251.358 48.9735 251.111 48.8003 250.907 48.5828C250.703 48.3653 250.545 48.1082 250.444 47.8273C250.343 47.5464 250.301 47.2478 250.32 46.95C250.363 46.329 250.637 45.7468 251.089 45.3188C251.541 44.8909 252.138 44.6486 252.76 44.64H299.64C299.938 44.638 300.233 44.6974 300.507 44.8145C300.781 44.9316 301.028 45.1039 301.233 45.3206C301.437 45.5373 301.595 45.7938 301.696 46.0742C301.797 46.3545 301.839 46.6526 301.82 46.95C301.78 47.5728 301.506 48.1575 301.054 48.5875C300.602 49.0175 300.004 49.2612 299.38 49.27Z" fill="white"/>
<path d="M283.76 57.37H252.06C251.761 57.372 251.464 57.3123 251.189 57.1947C250.914 57.0771 250.666 56.9041 250.46 56.6865C250.255 56.4688 250.096 56.2112 249.995 55.9297C249.893 55.6481 249.851 55.3487 249.87 55.05C249.913 54.429 250.187 53.8468 250.639 53.4188C251.091 52.9909 251.688 52.7486 252.31 52.74H284.02C284.318 52.7381 284.614 52.7975 284.889 52.9145C285.163 53.0314 285.411 53.2036 285.616 53.4201C285.821 53.6367 285.98 53.8931 286.082 54.1734C286.184 54.4538 286.228 54.7521 286.21 55.05C286.167 55.6736 285.892 56.2584 285.438 56.6882C284.984 57.118 284.385 57.3614 283.76 57.37Z" fill="white"/>
<path d="M285.34 197.31H244.34C244.042 197.311 243.746 197.25 243.472 197.132C243.198 197.014 242.951 196.84 242.747 196.623C242.543 196.405 242.385 196.148 242.284 195.867C242.183 195.586 242.141 195.288 242.16 194.99C242.2 194.368 242.474 193.785 242.927 193.356C243.379 192.928 243.977 192.686 244.6 192.68H285.55C285.848 192.678 286.144 192.738 286.419 192.854C286.693 192.971 286.941 193.144 287.146 193.36C287.351 193.577 287.51 193.833 287.612 194.113C287.714 194.394 287.758 194.692 287.74 194.99C287.698 195.605 287.43 196.183 286.986 196.612C286.543 197.04 285.956 197.289 285.34 197.31Z" fill="white"/>
<path d="M264.18 205.4H243.97C243.672 205.402 243.376 205.343 243.102 205.226C242.827 205.109 242.579 204.936 242.374 204.72C242.169 204.503 242.01 204.247 241.908 203.967C241.806 203.686 241.762 203.388 241.78 203.09C241.823 202.469 242.097 201.887 242.549 201.459C243.001 201.031 243.598 200.789 244.22 200.78H264.46C264.758 200.778 265.054 200.837 265.329 200.954C265.603 201.071 265.851 201.244 266.056 201.46C266.261 201.677 266.42 201.933 266.522 202.213C266.624 202.494 266.668 202.792 266.65 203.09C266.607 203.716 266.328 204.303 265.87 204.731C265.412 205.16 264.808 205.399 264.18 205.4Z" fill="white"/>
<path d="M297.16 89.75H250.28C249.658 89.7586 249.061 90.0009 248.609 90.4288C248.157 90.8567 247.883 91.439 247.84 92.06C247.822 92.3579 247.866 92.6562 247.968 92.9366C248.07 93.2169 248.229 93.4733 248.434 93.6899C248.639 93.9064 248.887 94.0785 249.162 94.1955C249.436 94.3125 249.732 94.3719 250.03 94.37H296.91C297.532 94.3614 298.129 94.1191 298.581 93.6912C299.033 93.2632 299.307 92.681 299.35 92.06C299.368 91.7621 299.324 91.4638 299.222 91.1834C299.12 90.903 298.961 90.6467 298.756 90.4301C298.551 90.2135 298.303 90.0415 298.029 89.9245C297.754 89.8075 297.458 89.7481 297.16 89.75Z" fill="white"/>
<path d="M282.43 81.65H250.73C250.108 81.6586 249.511 81.9009 249.059 82.3288C248.607 82.7567 248.333 83.339 248.29 83.96C248.271 84.2578 248.313 84.5564 248.414 84.8373C248.515 85.1182 248.673 85.3753 248.877 85.5928C249.081 85.8103 249.328 85.9835 249.602 86.1017C249.876 86.2199 250.172 86.2806 250.47 86.28H282.18C282.803 86.2689 283.4 86.0245 283.852 85.5949C284.303 85.1653 284.578 84.5819 284.62 83.96C284.639 83.6618 284.597 83.3628 284.495 83.0818C284.394 82.8008 284.235 82.5438 284.029 82.3269C283.824 82.11 283.576 81.938 283.3 81.8215C283.025 81.705 282.729 81.6466 282.43 81.65Z" fill="white"/>
<path d="M272.49 123.29H248.49C248.192 123.291 247.896 123.23 247.622 123.112C247.348 122.994 247.101 122.82 246.897 122.603C246.692 122.385 246.535 122.128 246.434 121.847C246.333 121.566 246.291 121.268 246.31 120.97C246.35 120.348 246.624 119.765 247.077 119.336C247.529 118.908 248.127 118.666 248.75 118.66H272.75C273.051 118.654 273.35 118.71 273.628 118.825C273.906 118.941 274.157 119.112 274.366 119.329C274.574 119.546 274.736 119.804 274.84 120.086C274.944 120.369 274.988 120.67 274.97 120.97C274.927 121.599 274.647 122.188 274.187 122.618C273.727 123.049 273.12 123.289 272.49 123.29Z" fill="white"/>
<path d="M295.32 123.29H281.16C280.861 123.292 280.564 123.232 280.289 123.115C280.014 122.997 279.766 122.824 279.56 122.606C279.355 122.389 279.196 122.131 279.095 121.85C278.993 121.568 278.951 121.269 278.97 120.97C279.013 120.349 279.287 119.767 279.739 119.339C280.191 118.911 280.788 118.669 281.41 118.66H295.58C295.878 118.658 296.173 118.717 296.447 118.834C296.721 118.952 296.968 119.124 297.173 119.341C297.377 119.557 297.535 119.814 297.636 120.094C297.737 120.374 297.779 120.673 297.76 120.97C297.718 121.592 297.443 122.175 296.992 122.605C296.54 123.034 295.943 123.279 295.32 123.29Z" fill="white"/>
<path d="M279.7 131.38H247.97C247.672 131.382 247.376 131.323 247.102 131.206C246.827 131.089 246.579 130.916 246.374 130.7C246.169 130.483 246.01 130.227 245.908 129.947C245.806 129.666 245.762 129.368 245.78 129.07C245.823 128.449 246.097 127.867 246.549 127.439C247.001 127.011 247.598 126.769 248.22 126.76H279.97C280.268 126.758 280.564 126.817 280.839 126.934C281.113 127.051 281.361 127.224 281.566 127.44C281.771 127.657 281.93 127.913 282.032 128.193C282.134 128.474 282.178 128.772 282.16 129.07C282.117 129.694 281.84 130.279 281.384 130.708C280.927 131.136 280.326 131.376 279.7 131.38Z" fill="white"/>
<path d="M239.97 237.87H185.97C185.55 237.88 185.133 237.801 184.745 237.639C184.357 237.478 184.008 237.236 183.719 236.931C183.431 236.625 183.21 236.263 183.07 235.866C182.931 235.47 182.876 235.049 182.91 234.63C182.97 233.76 183.355 232.943 183.988 232.343C184.622 231.743 185.458 231.403 186.33 231.39H240.33C240.75 231.38 241.167 231.459 241.555 231.621C241.943 231.782 242.292 232.024 242.581 232.329C242.869 232.635 243.09 232.997 243.23 233.394C243.369 233.79 243.424 234.211 243.39 234.63C243.332 235.501 242.948 236.319 242.314 236.919C241.68 237.52 240.843 237.859 239.97 237.87Z" fill="white"/>
<path d="M288.11 237.87H254.97C254.55 237.88 254.133 237.801 253.745 237.639C253.357 237.478 253.008 237.236 252.719 236.931C252.431 236.625 252.21 236.263 252.07 235.866C251.931 235.47 251.876 235.049 251.91 234.63C251.97 233.76 252.355 232.943 252.988 232.343C253.622 231.743 254.458 231.403 255.33 231.39H288.47C288.89 231.38 289.307 231.459 289.695 231.621C290.083 231.782 290.432 232.024 290.721 232.329C291.009 232.635 291.23 232.997 291.37 233.394C291.509 233.79 291.564 234.211 291.53 234.63C291.47 235.5 291.085 236.317 290.452 236.917C289.818 237.517 288.983 237.857 288.11 237.87Z" fill="white"/>
<path d="M226.47 249.17H185.37C184.95 249.18 184.533 249.101 184.145 248.939C183.757 248.778 183.408 248.536 183.119 248.231C182.831 247.925 182.61 247.563 182.47 247.166C182.331 246.77 182.276 246.349 182.31 245.93C182.368 245.059 182.752 244.241 183.386 243.641C184.02 243.04 184.857 242.701 185.73 242.69H226.82C227.24 242.68 227.658 242.759 228.045 242.921C228.433 243.082 228.782 243.324 229.071 243.629C229.359 243.935 229.58 244.297 229.72 244.694C229.859 245.09 229.914 245.511 229.88 245.93C229.822 246.8 229.44 247.616 228.808 248.216C228.176 248.816 227.342 249.157 226.47 249.17Z" fill="white"/>
<path d="M271.1 260.53H184.75C184.33 260.54 183.913 260.461 183.525 260.299C183.137 260.138 182.788 259.896 182.499 259.591C182.211 259.285 181.99 258.923 181.85 258.526C181.711 258.13 181.656 257.709 181.69 257.29C181.748 256.42 182.131 255.604 182.762 255.004C183.394 254.404 184.229 254.063 185.1 254.05H271.45C271.87 254.04 272.287 254.119 272.675 254.281C273.063 254.442 273.412 254.684 273.701 254.989C273.989 255.295 274.21 255.657 274.35 256.054C274.489 256.45 274.544 256.871 274.51 257.29C274.452 258.16 274.07 258.976 273.438 259.576C272.806 260.176 271.972 260.517 271.1 260.53Z" fill="white"/>
<path d="M260.1 163.77H246.22C245.598 163.779 245.001 164.021 244.549 164.449C244.097 164.877 243.823 165.459 243.78 166.08C243.762 166.378 243.806 166.676 243.908 166.957C244.01 167.237 244.169 167.493 244.374 167.71C244.579 167.926 244.827 168.099 245.102 168.216C245.376 168.333 245.672 168.392 245.97 168.39H259.85C260.472 168.381 261.069 168.139 261.521 167.711C261.973 167.283 262.247 166.701 262.29 166.08C262.308 165.782 262.264 165.484 262.162 165.203C262.06 164.923 261.901 164.667 261.696 164.45C261.491 164.234 261.243 164.061 260.969 163.944C260.694 163.827 260.398 163.768 260.1 163.77Z" fill="white"/>
<path d="M284.86 163.77H268.77C268.148 163.779 267.551 164.021 267.099 164.449C266.647 164.877 266.373 165.459 266.33 166.08C266.312 166.378 266.356 166.676 266.458 166.957C266.56 167.237 266.719 167.493 266.924 167.71C267.129 167.926 267.377 168.099 267.652 168.216C267.926 168.333 268.222 168.392 268.52 168.39H284.61C285.232 168.381 285.829 168.139 286.281 167.711C286.733 167.283 287.007 166.701 287.05 166.08C287.069 165.782 287.027 165.483 286.925 165.202C286.824 164.921 286.665 164.664 286.459 164.447C286.254 164.23 286.006 164.058 285.73 163.941C285.455 163.825 285.159 163.767 284.86 163.77Z" fill="white"/>
<path d="M278.37 155.67H246.67C246.047 155.676 245.449 155.918 244.997 156.346C244.544 156.775 244.27 157.358 244.23 157.98C244.211 158.278 244.253 158.576 244.354 158.857C244.455 159.138 244.613 159.395 244.817 159.613C245.021 159.83 245.268 160.004 245.542 160.122C245.816 160.24 246.112 160.301 246.41 160.3H278.12C278.743 160.289 279.34 160.044 279.792 159.615C280.243 159.185 280.518 158.602 280.56 157.98C280.578 157.682 280.534 157.384 280.432 157.103C280.33 156.823 280.171 156.567 279.966 156.35C279.761 156.134 279.513 155.961 279.239 155.844C278.964 155.727 278.668 155.668 278.37 155.67Z" fill="white"/>
<path d="M102.97 96.3C99.7 99.01 96.32 101.96 93.21 104.92C91.65 106.41 90.13 107.92 88.72 109.48C87.353 110.946 86.0994 112.514 84.97 114.17L84.78 114.45L84.69 114.61C84.6077 114.737 84.5374 114.87 84.48 115.01C84.34 115.32 84.21 115.71 84.07 116.12C83.8036 117.029 83.5965 117.954 83.45 118.89C83.138 120.978 82.9378 123.081 82.85 125.19C82.64 129.51 82.64 134.02 82.72 138.43L78.04 139.13C76.8679 134.606 76.0652 129.994 75.64 125.34C75.4167 122.923 75.3599 120.494 75.47 118.07C75.5497 116.76 75.7167 115.457 75.97 114.17C76.1099 113.444 76.3004 112.729 76.54 112.03C76.69 111.64 76.8 111.28 77 110.87L77.28 110.27C77.38 110.09 77.45 109.98 77.53 109.82C78.7543 107.607 80.1839 105.515 81.8 103.57C83.2978 101.703 84.8898 99.9143 86.57 98.21C89.8612 94.8404 93.3758 91.6966 97.09 88.8L102.97 96.3Z" fill="#B55B52"/>
<path d="M101.22 84.31C96.1 87.31 88.36 95.11 88.36 95.11L97.85 106.5C97.85 106.5 111.32 98.42 112.96 93.97C115.7 86.48 106.06 81.44 101.22 84.31Z" fill="#00B0A3"/>
<path d="M82.5099 136.74L83.6699 143.51L77.3799 142.6C77.3799 142.6 76.0899 138 79.3799 136.42L82.5099 136.74Z" fill="#B55B52"/>
<path d="M81.3499 147.63L75.6899 145.87L77.3799 142.6L83.6699 143.51L81.3499 147.63Z" fill="#B55B52"/>
<path d="M139.29 60.39C139.29 61.08 139.67 61.64 140.13 61.65C140.59 61.66 140.94 61.1 140.93 60.42C140.92 59.74 140.55 59.17 140.09 59.16C139.63 59.15 139.28 59.71 139.29 60.39Z" fill="#263238"/>
<path d="M139.89 59.17L141.56 58.72C141.56 58.72 140.72 60.02 139.89 59.17Z" fill="#263238"/>
<path d="M139.88 61.07C140.523 62.6542 141.378 64.1443 142.42 65.5C142.063 65.7439 141.657 65.9077 141.231 65.9802C140.805 66.0527 140.368 66.0321 139.95 65.92L139.88 61.07Z" fill="#A02724"/>
<path d="M140.16 55.82C140.095 55.8394 140.025 55.8394 139.96 55.82C139.467 55.6401 138.939 55.5781 138.418 55.6389C137.898 55.6997 137.398 55.8816 136.96 56.17C136.918 56.2031 136.869 56.2273 136.817 56.2412C136.765 56.2551 136.711 56.2585 136.658 56.251C136.605 56.2435 136.554 56.2254 136.508 56.1978C136.462 56.1701 136.422 56.1334 136.39 56.09C136.326 56.0035 136.298 55.8952 136.313 55.7886C136.328 55.6819 136.384 55.5854 136.47 55.52C137.012 55.1596 137.629 54.9295 138.275 54.848C138.92 54.7664 139.576 54.8356 140.19 55.05C140.291 55.0843 140.375 55.1568 140.424 55.2521C140.472 55.3474 140.482 55.4579 140.45 55.56C140.426 55.6231 140.387 55.6795 140.336 55.7247C140.286 55.7699 140.225 55.8025 140.16 55.82Z" fill="#263238"/>
<path d="M118.91 67.73C119.37 72.9 117.64 81.37 113.74 84.25C113.74 84.25 116.68 89.69 126.1 90.96C136.47 92.35 131.6 86.52 131.6 86.52C126.09 84.42 126.67 80.27 128.07 76.52L118.91 67.73Z" fill="#B55B52"/>
<path d="M137.32 90.54C142.25 91.88 147.43 93.17 152.51 94.32C155.07 94.87 157.63 95.32 160.19 95.87C162.75 96.42 165.32 96.77 167.87 97.1L168.87 97.23L169.53 97.3C169.99 97.3 170.53 97.3 171.03 97.3C172.192 97.219 173.348 97.062 174.49 96.83C176.966 96.3188 179.413 95.6745 181.82 94.9C186.75 93.36 191.75 91.5 196.64 89.58L198.86 93.75C194.251 96.7665 189.413 99.418 184.39 101.68C181.792 102.854 179.119 103.856 176.39 104.68C174.931 105.113 173.444 105.447 171.94 105.68C171.111 105.793 170.276 105.863 169.44 105.89H168.08L167.08 105.81C161.573 105.429 156.095 104.7 150.68 103.63C145.281 102.624 139.94 101.329 134.68 99.75L137.32 90.54Z" fill="#B55B52"/>
<path d="M195.34 91.27L196.79 86.36L202.12 88.36C202.12 88.36 200.9 95.74 196.33 93.7L195.34 91.27Z" fill="#B55B52"/>
<path d="M199.88 83.1L205.32 83.71L202.12 88.36L196.79 86.36L199.88 83.1Z" fill="#B55B52"/>
<path d="M103.61 330.04L112.18 330.67L114.73 310.99L106.16 310.36L103.61 330.04Z" fill="#B55B52"/>
<path d="M40.41 291.89L46.23 298.35L62.49 287.11L56.67 280.66L40.41 291.89Z" fill="#B55B52"/>
<path d="M50.54 302.01C50.4371 302.024 50.3329 302.024 50.23 302.01C49.23 301.67 48.48 299.74 48.15 298.62C48.1389 298.582 48.1395 298.541 48.1516 298.504C48.1637 298.466 48.1867 298.432 48.2178 298.408C48.2489 298.383 48.2866 298.368 48.3262 298.365C48.3658 298.362 48.4054 298.371 48.44 298.39C48.75 298.55 51.51 300.05 51.6 301.15C51.6097 301.27 51.5881 301.39 51.5373 301.498C51.4864 301.607 51.4081 301.701 51.31 301.77C51.0879 301.935 50.8164 302.02 50.54 302.01ZM48.69 298.94C49.19 300.42 49.8 301.39 50.36 301.57C50.4814 301.605 50.6097 301.607 50.7324 301.577C50.8551 301.548 50.968 301.486 51.06 301.4C51.1045 301.371 51.1408 301.331 51.1654 301.283C51.1899 301.236 51.2018 301.183 51.2 301.13C51.15 300.55 49.78 299.57 48.69 298.94Z" fill="#00B0A3"/>
<path d="M50.8699 299.34C49.9558 299.322 49.0573 299.1 48.2399 298.69C48.2099 298.67 48.185 298.644 48.1676 298.612C48.1502 298.581 48.1407 298.546 48.1399 298.51C48.1391 298.474 48.1492 298.438 48.1688 298.408C48.1884 298.378 48.2167 298.354 48.2499 298.34C48.3299 298.29 50.4499 297.12 51.6199 297.52C51.7726 297.569 51.9127 297.65 52.0303 297.759C52.1478 297.868 52.2399 298.001 52.2999 298.15C52.3801 298.292 52.408 298.458 52.3788 298.619C52.3496 298.78 52.2651 298.925 52.1399 299.03C51.7633 299.273 51.3161 299.382 50.8699 299.34ZM48.7899 298.51C49.7899 298.92 51.4299 299.11 51.8799 298.73C51.9499 298.66 52.0299 298.56 51.8799 298.31C51.8427 298.214 51.7849 298.128 51.7106 298.057C51.6363 297.986 51.5473 297.933 51.4499 297.9C50.5218 297.827 49.5935 298.04 48.7899 298.51Z" fill="#00B0A3"/>
<path d="M48.84 297.4L44.04 288.88C43.961 288.733 43.8314 288.619 43.6751 288.56C43.5187 288.502 43.3464 288.501 43.19 288.56L36.1 291.28C35.9187 291.36 35.7566 291.479 35.6248 291.627C35.493 291.775 35.3944 291.95 35.3356 292.139C35.2769 292.329 35.2594 292.528 35.2843 292.725C35.3092 292.922 35.3759 293.111 35.48 293.28C37.21 296.22 38.18 297.55 40.29 301.28C41.59 303.58 43.59 308.61 45.13 311.92C46.67 315.23 49.93 313.92 49.58 312.42C48.404 308.021 48.2399 303.412 49.1 298.94C49.1964 298.412 49.1044 297.867 48.84 297.4Z" fill="#263238"/>
<path d="M115.91 330.95C115.003 330.932 114.099 330.831 113.21 330.65C113.17 330.641 113.133 330.62 113.104 330.589C113.076 330.559 113.057 330.521 113.05 330.48C113.044 330.438 113.051 330.395 113.071 330.357C113.09 330.319 113.122 330.289 113.16 330.27C113.55 330.07 117.03 328.27 118.06 328.9C118.157 328.954 118.239 329.032 118.296 329.126C118.354 329.221 118.387 329.329 118.39 329.44C118.409 329.627 118.383 329.815 118.313 329.989C118.243 330.163 118.133 330.318 117.99 330.44C117.373 330.838 116.641 331.017 115.91 330.95ZM113.91 330.36C115.8 330.67 117.21 330.59 117.75 330.12C117.84 330.039 117.91 329.938 117.954 329.825C117.997 329.712 118.013 329.59 118 329.47C118.001 329.426 117.991 329.382 117.97 329.344C117.949 329.305 117.918 329.273 117.88 329.25C117.29 328.94 115.32 329.68 113.89 330.36H113.91Z" fill="#00B0A3"/>
<path d="M113.25 330.65C113.211 330.663 113.169 330.663 113.13 330.65C113.101 330.631 113.077 330.604 113.063 330.572C113.049 330.54 113.044 330.505 113.05 330.47C113.05 330.31 113.46 326.81 115.38 326.81H115.55C116.1 326.86 116.26 327.14 116.3 327.37C116.46 328.37 114.38 330.2 113.3 330.66C113.283 330.66 113.266 330.656 113.25 330.65ZM115.39 327.17C114.15 327.17 113.66 329.17 113.51 330.08C114.58 329.44 115.99 327.99 115.9 327.4C115.9 327.4 115.9 327.22 115.51 327.18L115.39 327.17Z" fill="#00B0A3"/>
<path d="M112.72 329.45H103.08C102.912 329.45 102.75 329.509 102.622 329.617C102.494 329.725 102.408 329.875 102.38 330.04L101.09 337.66C101.064 337.851 101.08 338.045 101.135 338.23C101.191 338.414 101.285 338.584 101.412 338.729C101.539 338.874 101.696 338.99 101.871 339.07C102.047 339.149 102.237 339.19 102.43 339.19C105.79 339.13 107.43 338.93 111.65 338.93C114.25 338.93 119.65 339.2 123.24 339.2C126.83 339.2 127.12 335.65 125.63 335.32C118.95 333.88 116.35 331.88 114.14 329.98C113.744 329.641 113.241 329.454 112.72 329.45Z" fill="#263238"/>
<path opacity="0.2" d="M114.73 311L113.31 321.94L104.84 320.52L106.15 310.36L114.73 311Z" fill="black"/>
<path opacity="0.2" d="M56.66 280.66L62.48 287.12L55.76 291.76L49.73 285.45L56.66 280.66Z" fill="black"/>
<path d="M99.29 135.9L133.97 140.56C147.42 91.87 143.45 90.56 143.45 90.56C140.851 89.343 138.179 88.2876 135.45 87.4L134.98 87.25C132.74 86.57 132.27 86.48 129.28 85.8C124.15 84.89 119.39 84.19 113.51 83.69C113.14 83.69 112.76 83.62 112.39 83.6C111.33 83.53 110.28 83.48 109.26 83.44C108.58 83.44 107.89 83.44 107.26 83.44H103.88C103.211 83.4551 102.553 83.6095 101.947 83.8934C101.341 84.1774 100.801 84.5846 100.362 85.089C99.9222 85.5935 99.5928 86.184 99.3945 86.823C99.1962 87.462 99.1334 88.1353 99.21 88.8C102.18 114.37 101.24 122.8 99.29 135.9Z" fill="#00B0A3"/>
<path opacity="0.2" d="M134.97 101.57C135.21 103.83 140.43 107.96 142.24 106.85C142.76 104.14 143.14 101.85 143.41 100.01C140.79 99.81 135.66 96.92 134.97 101.57Z" fill="black"/>
<path d="M129.34 90.17C129.09 82.17 148.48 90.98 152.93 92.97L147.97 106.38C147.97 106.38 141.48 106.16 137.35 103.77C135.001 102.335 133.041 100.344 131.644 97.9719C130.247 95.5999 129.456 92.9204 129.34 90.17Z" fill="#00B0A3"/>
<path d="M115.97 58.17C116.61 66.63 116.7 70.22 121.08 74.62C127.65 81.23 138 78.89 139.92 70.48C141.65 62.91 140.31 50.35 131.92 46.87C130.119 46.0633 128.138 45.7403 126.174 45.9327C124.21 46.1251 122.33 46.8264 120.72 47.9673C119.109 49.1082 117.824 50.6493 116.991 52.4385C116.158 54.2277 115.806 56.2032 115.97 58.17Z" fill="#B55B52"/>
<path d="M116.71 49.24C108.21 47.11 107.94 54.24 108.12 58C108.3 61.76 102.05 63.56 102.05 68.27C102.05 74.41 106.68 78.07 95.42 79.93C85.89 81.5 82.95 93.41 97.05 100.38C112.66 108.08 136.21 97.24 133.35 86.93C128.97 71.02 136.84 71.07 135.97 62.17C135.32 55.71 141.44 55.39 139.24 50C136.34 42.95 115.97 36.76 116.71 49.24Z" fill="#263238"/>
<path d="M106.87 61.17C105.7 55.01 106.34 50.93 108.77 49.02C111.9 46.55 116.71 48.69 116.91 48.78L116.5 49.69C116.5 49.69 112.03 47.69 109.38 49.8C107.27 51.47 106.76 55.23 107.85 60.98L106.87 61.17Z" fill="#263238"/>
<path d="M97.26 78.17C95.0653 78.1008 92.8982 77.6613 90.85 76.87L91.22 75.94C91.29 75.94 98.03 78.62 101.15 76.03C102.67 74.77 103.1 72.41 102.44 69.03L103.44 68.84C104.18 72.63 103.63 75.32 101.81 76.84C100.494 77.799 98.8852 78.2693 97.26 78.17Z" fill="#263238"/>
<path d="M133.66 61.58C133.579 63.1582 133.988 64.7228 134.83 66.06C135.99 67.95 137.56 67.6 138.07 66C138.58 64.4 138.49 61.83 136.92 60.46C135.35 59.09 133.82 59.83 133.66 61.58Z" fill="#B55B52"/>
<path d="M124.84 139.33C124.84 139.33 111.36 196.33 105.06 229.02C98.4199 263.55 59.0599 291.72 59.0599 291.72L50.4199 282.83C50.4199 282.83 75.7599 260.65 82.2699 228.41C95.4799 162.97 86.5399 149.79 99.2699 135.9L124.84 139.33Z" fill="#263238"/>
<path d="M59.8 293L49.01 281.9L52.04 278.64L64.57 289.67L59.8 293Z" fill="#00B0A3"/>
<path opacity="0.2" d="M117.68 151.71C107.2 160.81 108.33 193.1 109.43 207.65C113.82 186.96 119.11 163.92 122.21 150.59C121.1 149.77 119.6 150.04 117.68 151.71Z" fill="black"/>
<path d="M133.49 140.59C133.49 140.59 139.55 208.22 136.24 234.02C132.8 260.85 115.24 319.23 115.24 319.23L102.97 317.64C102.97 317.64 112.97 259.78 114.8 233.22C116.74 204.22 108.11 137.22 108.11 137.22L133.49 140.59Z" fill="#263238"/>
<path d="M117.92 319.94L100.3 317.66L100.57 312.46L119.69 314.31L117.92 319.94Z" fill="#00B0A3"/>
<path d="M98.97 133.81L97.07 136.68C96.93 136.91 97.19 137.19 97.59 137.24L133.97 142.17C134.28 142.17 134.56 142.09 134.6 141.9L135.24 138.9C135.29 138.69 135.03 138.47 134.69 138.42L99.54 133.71C99.4443 133.677 99.3418 133.669 99.2422 133.687C99.1425 133.704 99.0489 133.747 98.97 133.81Z" fill="#00B0A3"/>
<path opacity="0.3" d="M98.97 133.81L97.07 136.68C96.93 136.91 97.19 137.19 97.59 137.24L133.97 142.17C134.28 142.17 134.56 142.09 134.6 141.9L135.24 138.9C135.29 138.69 135.03 138.47 134.69 138.42L99.54 133.71C99.4443 133.677 99.3418 133.669 99.2422 133.687C99.1425 133.704 99.0489 133.747 98.97 133.81Z" fill="black"/>
<path d="M103.29 138.34L102.35 138.22C102.16 138.22 102.03 138.08 102.06 137.96L102.92 134.01C102.92 133.9 103.12 133.83 103.31 133.85L104.25 133.98C104.44 133.98 104.57 134.12 104.55 134.23L103.68 138.18C103.66 138.3 103.48 138.37 103.29 138.34Z" fill="#263238"/>
<path d="M127.07 141.59L126.13 141.46C125.94 141.46 125.81 141.32 125.83 141.21L126.7 137.26C126.7 137.15 126.9 137.07 127.09 137.1L128.03 137.22C128.22 137.22 128.35 137.36 128.32 137.48L127.46 141.43C127.43 141.54 127.26 141.62 127.07 141.59Z" fill="#263238"/>
</svg>
